<svg width="46" height="30" viewBox="0 0 46 30" fill="none" xmlns="http://www.w3.org/2000/svg">
<g id="logo-74" clip-path="url(#clip0_77_377)">
<path id="Vector" d="M43.0605 4.06483C43.0605 4.09864 43.0605 4.14091 43.0519 4.16627C43.0087 4.49595 43.0087 4.82564 43.0346 5.16378C43.0518 5.24831 43.0691 5.33285 43.1381 5.40048C43.2501 5.52727 43.4225 5.50192 43.4915 5.34975C43.526 5.27367 43.526 5.19759 43.5087 5.12151C43.4225 4.80028 43.4053 4.46214 43.3967 4.13245C43.3967 4.11555 43.3967 4.09018 43.3967 4.06483C43.4915 4.05637 43.5777 4.04792 43.6552 4.04792C43.7156 4.03947 43.7673 4.03101 43.8105 4.00565C43.9397 3.93803 43.9397 3.79432 43.8018 3.72669C43.7501 3.70133 43.6811 3.69287 43.6208 3.69287C43.4053 3.70133 43.1898 3.70133 42.9742 3.70133C42.8967 3.70133 42.8191 3.70978 42.7415 3.71823C42.6984 3.72669 42.6467 3.72669 42.6122 3.75205C42.5518 3.77741 42.5174 3.81967 42.5174 3.87885C42.526 3.93803 42.5518 3.97184 42.6122 3.9972C42.6467 4.02256 42.6898 4.03101 42.7329 4.03101C42.8363 4.03947 42.9484 4.05637 43.0605 4.06483ZM45.431 4.45369C45.431 4.46214 45.4396 4.47059 45.4396 4.47059C45.4741 4.69883 45.5086 4.91863 45.5345 5.13842C45.5431 5.21449 45.5518 5.28212 45.6035 5.3413C45.7155 5.48501 45.8879 5.4681 45.9655 5.31594C46 5.23986 46.0086 5.16378 45.9914 5.07924C45.9397 4.82564 45.9138 4.57203 45.8621 4.32688C45.8276 4.17472 45.7845 4.03101 45.7414 3.89576C45.7155 3.81122 45.6552 3.75204 45.5518 3.74359C45.4483 3.72669 45.3707 3.77741 45.3276 3.85349C45.2759 3.92111 45.2328 3.98874 45.1983 4.06483C45.1379 4.20008 45.0862 4.33534 45.0173 4.46214C45.0086 4.49595 45 4.52132 44.9828 4.54667C44.9742 4.52976 44.9656 4.52132 44.9656 4.52132C44.8535 4.30998 44.75 4.09864 44.638 3.89576C44.6207 3.87885 44.6121 3.86194 44.6035 3.84504C44.5518 3.76896 44.4914 3.72669 44.3966 3.72669C44.3104 3.73514 44.2414 3.78586 44.1984 3.86194C44.1811 3.89576 44.1811 3.92111 44.1725 3.95493C44.138 4.22544 44.0949 4.49595 44.0604 4.76646C44.0431 4.91863 44.0345 5.07079 44.0345 5.22295C44.0259 5.25676 44.0345 5.29903 44.0518 5.33285C44.069 5.40047 44.1208 5.44274 44.1897 5.45119C44.2759 5.45965 44.3362 5.43429 44.3621 5.36666C44.388 5.31594 44.3966 5.27367 44.4052 5.23141C44.4397 5.07924 44.4656 4.93553 44.4915 4.79183C44.5087 4.70729 44.5173 4.63966 44.5432 4.54667C44.5604 4.58049 44.5776 4.60585 44.5949 4.63121C44.6724 4.73265 44.75 4.83409 44.8449 4.91863C44.9397 4.98625 45.0173 4.9778 45.0948 4.90172C45.1121 4.88481 45.1207 4.87636 45.1379 4.85945C45.2156 4.7411 45.3104 4.62276 45.3879 4.5044C45.4052 4.4875 45.4138 4.47059 45.431 4.45369Z" fill="#B1B2B8"/>
<path id="Vector_2" d="M25.5686 4.23068C25.5086 4.39133 25.4972 4.50708 25.5249 4.60328C25.5554 4.73409 25.6348 4.77692 25.7424 4.74365C26.7549 4.49812 28.9752 5.19504 29.7972 5.38928C29.9911 5.43007 30.1488 5.18465 30.0165 4.96462C29.8234 4.75154 27.6041 3.83924 26.7574 3.7895C26.4254 3.77111 25.832 3.68764 25.5686 4.23068Z" fill="#B1B2B8"/>
<path id="Vector_3" d="M34.2459 1.27743C34.3538 1.33851 34.4141 1.39677 34.4439 1.46187C34.4882 1.54726 34.4648 1.60634 34.3903 1.63649C33.721 1.95682 32.8304 3.33591 32.4709 3.81154C32.3837 3.92096 32.1827 3.85738 32.1523 3.67744C32.1586 3.474 32.9481 1.97738 33.3887 1.56975C33.5618 1.4106 33.8479 1.09833 34.2459 1.27743Z" fill="#B1B2B8"/>
<path id="Vector_4" d="M28.9158 0.598729C29.0454 0.502912 29.1802 0.469335 29.249 0.531604C30.2588 1.3785 30.7943 2.71964 31.1259 3.94742C31.1384 3.97603 31.1392 4.01707 31.1292 4.0599C31.125 4.09649 31.0978 4.13516 31.0545 4.16507C31.0082 4.1981 30.9684 4.20816 30.9497 4.1797C30.5071 3.58937 27.9792 1.2925 28.9158 0.598729Z" fill="#B1B2B8"/>
<path id="Vector_5" d="M7.53151 15.2818C7.77354 15.1051 8.03666 14.958 8.31509 14.8438C8.6064 14.7622 8.9169 14.7757 9.19967 14.8825C9.48238 14.9892 9.72203 15.1833 9.88225 15.4355C10.0256 15.687 10.0816 15.9774 10.0421 16.2629C10.0025 16.5484 9.86943 16.8135 9.66283 17.0184C9.50268 17.1845 9.32085 17.3292 9.1222 17.4488C8.23676 18.0097 7.34344 18.5399 6.45017 19.1008C6.26738 19.2412 6.07348 19.3672 5.87031 19.4774C5.56128 19.6285 5.2081 19.669 4.87185 19.5918C4.5356 19.5147 4.23743 19.3247 4.02889 19.0548C3.873 18.8636 3.74143 18.6546 3.6371 18.4323C2.79083 16.688 1.91322 14.9514 1.09829 13.1763C0.722167 12.408 0.416571 11.5243 0.11881 10.6713C-0.0100153 10.4235 -0.0351719 10.1362 0.0486967 9.87047C0.132565 9.60472 0.318842 9.38155 0.567904 9.24842C0.816967 9.11528 1.10916 9.08272 1.38235 9.15759C1.65553 9.23247 1.88816 9.40891 2.03075 9.64934C2.46903 10.2205 2.857 10.8272 3.19045 11.4628C4.03672 12.9996 4.84382 14.5364 5.65874 16.0272C5.70619 16.1096 5.75852 16.189 5.81546 16.2654C6.42883 16.0125 7.00573 15.6818 7.53151 15.2818Z" fill="#B1B2B8"/>
<path id="Vector_6" d="M16.2814 14.7457C14.346 16.9663 11.102 16.4054 9.47212 13.5469C8.31239 11.5183 8.10868 8.16801 10.6318 6.05488C11.1706 5.61248 11.8149 5.31111 12.5046 5.17888C13.3502 5.06 14.2125 5.20629 14.9682 5.59686C15.7239 5.98742 16.3344 6.60226 16.7125 7.35351C18.0915 9.81244 17.8956 12.9475 16.2814 14.7457ZM15.4979 9.56654C15.2922 8.96228 14.8797 8.44641 14.3303 8.10652C14.0194 7.88922 13.6416 7.78356 13.2606 7.80736C12.8795 7.83115 12.5185 7.98294 12.2382 8.23715C11.1177 9.21307 10.8825 11.526 11.6975 12.9015C11.8014 13.1258 11.9539 13.3251 12.1445 13.4855C12.3352 13.6459 12.5592 13.7636 12.8011 13.8301C13.0429 13.8968 13.2966 13.9107 13.5446 13.8711C13.7925 13.8314 14.0286 13.7392 14.2363 13.6007C14.8437 13.1389 15.2893 12.503 15.5112 11.7814C15.7331 11.0598 15.7202 10.2883 15.4744 9.57425L15.4979 9.56654Z" fill="#B1B2B8"/>
<path id="Vector_7" d="M24.1799 10.5348C23.9818 10.5766 23.7771 10.5791 23.5779 10.5421C23.3788 10.5051 23.1891 10.4295 23.0202 10.3197C22.8725 10.2368 22.7452 10.1228 22.6477 9.98591C22.5503 9.84901 22.4849 9.69268 22.4565 9.52804C22.428 9.36346 22.4371 9.19473 22.483 9.03398C22.529 8.87323 22.6108 8.72447 22.7225 8.59839C22.917 8.34503 23.1931 8.16365 23.5061 8.08357C24.3231 7.85104 25.1642 7.70927 26.0135 7.66096C26.2002 7.63967 26.3892 7.65516 26.5696 7.70651C26.7501 7.75792 26.9182 7.84406 27.0642 7.96006C27.2101 8.07599 27.331 8.21941 27.4197 8.38181C27.5084 8.54421 27.5631 8.72236 27.5807 8.90579C27.8255 9.80677 27.8523 10.7514 27.659 11.6644C26.9538 14.6151 24.5247 15.6294 21.7978 14.6842C21.0324 14.4315 20.3612 13.9607 19.8702 13.3318C19.2153 12.5746 18.751 11.6771 18.5146 10.7116C18.3231 9.85178 18.3441 8.95964 18.5759 8.10947C18.8076 7.25931 19.2433 6.47582 19.8467 5.82444C20.4193 5.11646 21.1626 4.55929 22.0094 4.20308C22.5445 3.91384 23.1707 3.8316 23.7647 3.97256C23.8994 4.00912 24.0217 4.08037 24.1189 4.17891C24.216 4.27746 24.2846 4.3997 24.3174 4.53298C24.3502 4.66624 24.346 4.80569 24.3053 4.93685C24.2645 5.068 24.1888 5.18609 24.0859 5.27886C23.8902 5.45257 23.6776 5.60699 23.4512 5.73991C22.7546 6.17496 22.1483 6.73555 21.6646 7.39199C21.3476 7.81677 21.1292 8.30457 21.025 8.82096C20.9207 9.33736 20.9331 9.86991 21.0613 10.3812C21.239 11.0782 21.6333 11.7039 22.1896 12.1715C23.9135 13.7084 26.1546 12.2253 25.7628 10.1275C25.1908 10.2659 24.6893 10.4119 24.1799 10.5348Z" fill="#B1B2B8"/>
<path id="Vector_8" d="M34.7114 14.8684C32.1648 16.4053 29.2655 14.8684 28.6308 11.6411C28.1685 9.33586 29.0461 6.1085 32.1178 4.87904C32.7713 4.62309 33.4802 4.53322 34.1786 4.61778C35.0177 4.76842 35.7875 5.17351 36.3793 5.77597C36.9711 6.37842 37.3553 7.14781 37.4775 7.97576C37.9946 10.719 36.8193 13.6466 34.7114 14.8684ZM35.5969 9.69698C35.5961 9.05865 35.3659 8.44095 34.9465 7.95269C34.7224 7.6507 34.3983 7.43432 34.0297 7.3404C33.661 7.24654 33.2706 7.28095 32.9248 7.43788C31.5458 8.02183 30.5741 10.1427 30.9267 11.7026C30.9537 11.9474 31.0348 12.1835 31.1644 12.3943C31.2941 12.6052 31.4691 12.7857 31.6774 12.9233C31.8856 13.0608 32.1219 13.1522 32.3699 13.1909C32.6179 13.2295 32.8715 13.2146 33.1129 13.1472C33.8419 12.8975 34.4731 12.4308 34.9183 11.8122C35.3637 11.1936 35.6009 10.4541 35.5969 9.69698Z" fill="#B1B2B8"/>
<path id="Vector_9" d="M40.0528 15.5142C40.0144 15.7955 39.8636 16.0502 39.6336 16.2224C39.4036 16.3946 39.1133 16.4702 38.8265 16.4325C38.5397 16.3948 38.28 16.2469 38.1044 16.0213C37.9287 15.7959 37.8517 15.5111 37.8901 15.2299C37.9286 14.9487 38.0794 14.6939 38.3093 14.5217C38.5393 14.3495 38.8297 14.274 39.1164 14.3117C39.4032 14.3494 39.663 14.4972 39.8386 14.7227C40.0142 14.9483 40.0913 15.233 40.0528 15.5142ZM39.3711 5.1483C39.5201 4.9251 39.7387 4.75512 39.9944 4.66373C40.2499 4.57233 40.5288 4.56441 40.7894 4.64115C41.0543 4.70614 41.2883 4.8584 41.4524 5.07242C41.6164 5.28646 41.7005 5.54925 41.6905 5.81682C41.656 6.246 41.5905 6.67225 41.4946 7.09237C41.236 8.51396 40.9853 9.93549 40.7111 11.3417C40.5857 11.9027 40.4211 12.4406 40.2409 13.0092C40.1782 13.1869 40.0734 13.3475 39.9353 13.4779C39.8494 13.576 39.7397 13.6512 39.6163 13.6966C39.4929 13.7421 39.3598 13.7562 39.2294 13.7379C39.099 13.7195 38.9753 13.6691 38.8699 13.5915C38.7646 13.5138 38.6809 13.4113 38.6267 13.2935C38.5335 13.0822 38.4829 12.8551 38.4778 12.625C38.4778 11.6721 38.4778 10.7116 38.5405 9.75108C38.647 8.3803 38.8565 7.01907 39.1674 5.6785C39.204 5.4989 39.2729 5.32715 39.3711 5.17135V5.1483Z" fill="#B1B2B8"/>
<path id="Vector_10" fill-rule="evenodd" clip-rule="evenodd" d="M4.22089 21.6889C4.12837 21.8915 4.103 22.1173 4.14821 22.3346C4.17828 22.621 4.24435 22.9028 4.34489 23.1734C4.47042 23.5048 4.61088 23.8325 4.78408 24.2364C4.82391 24.3293 4.86553 24.4263 4.90909 24.5284C5.14265 25.0756 5.43571 25.7749 5.82661 26.7869C5.93725 27.0744 6.0355 27.3643 6.13444 27.6562C6.17441 27.7741 6.21452 27.8924 6.25558 28.0109C6.40275 28.4325 6.65599 28.8112 6.99166 29.1114C7.13419 29.2763 7.32325 29.3966 7.53525 29.4567C7.75138 29.518 7.98125 29.5141 8.19508 29.4455C8.40892 29.3769 8.59673 29.2468 8.73414 29.0721C8.86885 28.9008 8.94896 28.6944 8.96453 28.4787C9.05193 28.0586 9.0221 27.623 8.87805 27.218C8.64943 26.5455 8.38901 25.8721 8.08869 25.2134L8.08731 25.2105C7.59327 24.1799 7.09108 23.1565 6.56513 22.1326L6.5612 22.1255C6.40723 21.8587 6.20713 21.6203 5.96991 21.4208C5.8159 21.2428 5.60346 21.1227 5.36886 21.0813C5.12926 21.0391 4.88215 21.0817 4.67164 21.2015C4.4725 21.3131 4.31464 21.4837 4.22089 21.6889Z" fill="#B1B2B8"/>
<path id="Vector_11" fill-rule="evenodd" clip-rule="evenodd" d="M11.7666 19.1513C10.992 18.9546 10.183 18.9259 9.39596 19.0674C8.78639 19.1262 8.18688 19.2641 7.77058 19.5372C7.55885 19.6762 7.38766 19.8547 7.29244 20.0816C7.1967 20.3097 7.18447 20.5705 7.26294 20.8612C7.40619 21.3936 7.59223 21.9113 7.77761 22.4273L7.80764 22.5108L7.80837 22.5127C8.36654 24.0117 8.93004 25.5057 9.49867 26.9945C9.56497 27.2291 9.65875 27.4555 9.77808 27.669L9.78032 27.6729C9.93797 27.9381 10.1402 28.1753 10.3784 28.3746C10.4975 28.4841 10.6449 28.5599 10.8046 28.5938C10.9659 28.6279 11.1337 28.618 11.2896 28.5651C11.4457 28.5121 11.5838 28.4182 11.6891 28.2935C11.7926 28.1708 11.8604 28.0231 11.8853 27.8658C11.9881 27.4386 11.9552 26.9907 11.7909 26.5824C11.7397 26.445 11.6994 26.3045 11.6571 26.1567C11.6429 26.1074 11.6286 26.0572 11.6135 26.0061C12.9151 25.5072 14.3 24.8363 14.787 23.2756C14.9777 22.7362 14.9936 22.1522 14.8325 21.6036C14.6712 21.0544 14.3404 20.5676 13.8855 20.2102C13.2664 19.71 12.5432 19.3485 11.7666 19.1513ZM9.61938 21.0657C9.64501 21.0584 9.67084 21.0517 9.69673 21.0454C10.5441 20.9148 11.4111 21.0889 12.138 21.5355C12.4584 21.7539 12.5896 21.9967 12.6121 22.2303C12.6354 22.4708 12.5462 22.7314 12.3671 22.9819C12.0286 23.4551 11.4109 23.8339 10.8529 23.9045C10.4461 22.9858 10.0331 22.03 9.61938 21.0657Z" fill="#B1B2B8"/>
<path id="Vector_12" d="M16.931 17.4696C17.8535 17.0518 18.9962 16.9797 19.8904 17.2734C20.1156 17.3377 20.311 17.4769 20.4431 17.667C20.5744 17.856 20.635 18.0837 20.6148 18.3114C20.6135 18.4591 20.5765 18.6045 20.5069 18.7357C20.436 18.8692 20.3335 18.984 20.2078 19.0705C20.0822 19.1569 19.9371 19.2125 19.785 19.2323C19.6328 19.2522 19.478 19.2359 19.3337 19.1846L19.3227 19.1808L19.3124 19.1754C19.2385 19.1375 19.1601 19.109 19.0789 19.0904L19.0738 19.0893C18.4448 18.9254 17.8514 19.1969 17.6347 19.5305C17.5313 19.6895 17.5185 19.8501 17.6046 19.9961C17.6968 20.1525 17.9229 20.328 18.3805 20.4531C18.5063 20.487 18.6353 20.5197 18.7662 20.5529C19.128 20.6448 19.504 20.7402 19.8676 20.8725L19.869 20.873C21.5464 21.4989 22.171 22.7951 21.9572 24.0143C21.7457 25.22 20.7189 26.3173 19.1748 26.5761C18.6129 26.6982 18.0282 26.6744 17.4785 26.5071C16.9274 26.3392 16.4307 26.0329 16.0376 25.6185L16.0274 25.6077C15.9033 25.4515 15.8199 25.2681 15.7829 25.0735C15.7488 24.8978 15.7668 24.7163 15.8345 24.5503C15.9017 24.3853 16.0156 24.2424 16.1624 24.1384C16.3176 24.0204 16.5046 23.9496 16.7004 23.9348C16.8955 23.9201 17.0907 23.9617 17.262 24.0544C17.4332 24.1355 17.5923 24.2389 17.7352 24.3619L17.7379 24.3641C17.9906 24.5908 18.2964 24.6498 18.5896 24.5951C18.8871 24.5396 19.1668 24.367 19.3468 24.138C19.5255 23.9104 19.5973 23.64 19.5121 23.3776C19.4264 23.1132 19.1687 22.817 18.6026 22.5694C18.4546 22.5078 18.3012 22.4581 18.1416 22.4097C18.0985 22.3967 18.0547 22.3837 18.0105 22.3705C17.8924 22.3354 17.771 22.2992 17.6519 22.2593C17.5699 22.2319 17.4885 22.2059 17.408 22.1801C17.1878 22.1098 16.9731 22.0413 16.7665 21.9493C16.3168 21.7992 15.9283 21.5109 15.6588 21.1271C15.3882 20.7418 15.252 20.281 15.2706 19.8136C15.272 18.6745 16.0036 17.8897 16.931 17.4696Z" fill="#B1B2B8"/>
<path id="Vector_13" d="M28.6264 17.3484C28.4475 17.2627 28.2497 17.222 28.0509 17.23C27.852 17.238 27.6582 17.2944 27.4872 17.3943C27.3172 17.4934 27.1748 17.6322 27.0728 17.7984C26.9793 17.9383 26.9146 18.0948 26.8823 18.2591C26.8501 18.4233 26.8509 18.592 26.8846 18.7558C26.9179 18.9663 26.9548 19.171 26.9913 19.3729C27.0517 19.707 27.1104 20.0336 27.1492 20.3665L27.1507 20.375C27.2389 20.8972 27.2851 21.4253 27.2892 21.9545L27.2896 21.9621C27.3198 22.5336 27.1212 23.094 26.7365 23.5244L26.7303 23.5321C26.6052 23.6894 26.4378 23.8095 26.2469 23.8789C26.056 23.9483 25.8493 23.9642 25.6497 23.925C25.4502 23.8857 25.2657 23.7928 25.1169 23.6565C24.9681 23.5203 24.8608 23.3456 24.8073 23.1531C24.6929 22.7473 24.6268 22.3299 24.6099 21.9093L24.8052 18.8601C24.8081 18.8203 24.8114 18.7794 24.8148 18.7382C24.8222 18.6456 24.8298 18.5513 24.833 18.4633C24.8376 18.3338 24.8336 18.2007 24.8029 18.0747C24.7714 17.9459 24.7115 17.8234 24.6053 17.719C24.5002 17.6158 24.3583 17.5396 24.1796 17.4877C23.8567 17.396 23.5835 17.3989 23.356 17.4936C23.1283 17.5883 22.9723 17.7642 22.8619 17.9673C22.7523 18.1687 22.6819 18.4072 22.6287 18.646C22.5892 18.8233 22.5575 19.0093 22.5273 19.1864C22.5169 19.2475 22.5067 19.3074 22.4964 19.3656L22.4961 19.3673C22.3347 20.3385 22.2867 21.3247 22.3529 22.3066C22.3653 22.8372 22.4781 23.361 22.6858 23.8511C22.92 24.4836 23.3443 25.0316 23.9027 25.4227C24.4623 25.8147 25.13 26.0307 25.8175 26.0421C26.505 26.0535 27.1798 25.8598 27.7526 25.4867C28.3244 25.1141 28.7676 24.5801 29.0235 23.9553C29.3815 23.1595 29.5495 22.294 29.5149 21.4248C29.4938 20.7902 29.4586 20.1507 29.4236 19.5145C29.4064 19.2024 29.3892 18.891 29.3738 18.5815C29.3661 18.2712 29.2617 17.9705 29.0747 17.72C28.959 17.5616 28.8049 17.4339 28.6264 17.3484Z" fill="#B1B2B8"/>
<path id="Vector_14" d="M34.9574 22.1296C34.9393 22.1522 34.9202 22.1756 34.9002 22.1999C34.7547 21.3768 34.6199 20.554 34.4848 19.73C34.4364 19.4343 34.3877 19.1374 34.3387 18.8413L34.3332 18.8083L34.3153 18.7797C34.2816 18.726 34.2783 18.6734 34.2783 18.5611V18.5481L34.2762 18.5352C34.2397 18.3033 34.1327 18.0874 33.9693 17.9159C33.8063 17.7449 33.5946 17.6259 33.3618 17.5742C33.1294 17.518 32.8851 17.5304 32.6598 17.6099C32.4351 17.6892 32.2392 17.8316 32.0966 18.0195C31.978 18.1636 31.8808 18.3235 31.808 18.4944C31.6427 18.8624 31.476 19.2314 31.3088 19.6013L31.3059 19.6077C30.8886 20.5313 30.4684 21.4611 30.0605 22.3982L30.0592 22.4012C29.8088 23.0088 29.602 23.649 29.396 24.2873C29.3549 24.4147 29.3138 24.542 29.2723 24.6691C29.1979 24.8705 29.1654 25.0844 29.1765 25.2983C29.163 25.4898 29.2097 25.6808 29.3105 25.8455C29.4133 26.0135 29.5673 26.1457 29.7507 26.2236C29.9451 26.3072 30.1624 26.3249 30.3683 26.274C30.5737 26.2232 30.7561 26.1069 30.8868 25.9435C31.0537 25.7421 31.1973 25.5225 31.3144 25.2899C31.66 24.5966 31.9903 23.895 32.3191 23.1963C32.4463 22.9261 32.5699 22.6841 32.7105 22.4205C32.7202 22.453 32.73 22.4847 32.7402 22.5165C32.8876 23.1528 33.1364 23.7623 33.4774 24.3227C33.5419 24.4414 33.6318 24.5451 33.7409 24.6268C33.8513 24.7095 33.9787 24.7675 34.1143 24.7969C34.2499 24.8264 34.3904 24.8265 34.526 24.7973C34.6615 24.7682 34.7893 24.7101 34.8997 24.6279L35.1184 24.4674L36.8153 23.0657L36.715 23.6928C36.5772 24.5548 36.4405 25.4097 36.2953 26.2647C36.2003 26.6437 36.2004 27.0395 36.2957 27.4184C36.337 27.6316 36.4421 27.8279 36.5977 27.9822C36.7546 28.1379 36.9556 28.2436 37.1746 28.2858C37.3935 28.3279 37.6204 28.3045 37.8256 28.2187C38.0279 28.1341 38.1999 27.9927 38.3202 27.8124C38.6 27.472 38.7741 27.0598 38.822 26.625C38.894 26.011 38.9753 25.3887 39.0568 24.7665C39.1505 24.0493 39.2443 23.3324 39.3235 22.6292L39.3237 22.627C39.4 21.8572 39.4368 21.0843 39.4343 20.3109C39.451 20.0666 39.3889 19.8231 39.2567 19.615C39.124 19.4062 38.9276 19.2439 38.6953 19.151C38.4538 19.0433 38.1833 19.0145 37.9238 19.069C37.666 19.123 37.4327 19.2563 37.2576 19.4493C36.9446 19.7332 36.651 20.037 36.3786 20.3587L36.3768 20.3608C36.0794 20.7242 35.7841 21.0947 35.4907 21.4628C35.3123 21.6865 35.1344 21.9098 34.9574 22.1296Z" fill="#B1B2B8"/>
</g>
<defs>
<clipPath id="clip0_77_377">
<rect width="46" height="29" fill="white" transform="translate(0 0.5)"/>
</clipPath>
</defs>
</svg>
