<svg width="135" height="30" viewBox="0 0 135 30" fill="none" xmlns="http://www.w3.org/2000/svg">
<g id="Frame" clip-path="url(#clip0_76_345)">
<path id="Vector" d="M38.9506 15.6015C38.9775 15.0891 38.9775 14.5756 38.9506 14.0631H9.50741C9.50121 14.1908 9.49578 14.3192 9.49267 14.4477H3.32457L3.32147 14.64H0V15.0246H3.32069L3.32534 15.2169H9.49267C9.49578 15.3462 9.50043 15.4738 9.50819 15.6015H17.9612C17.9291 15.3464 17.9131 15.0895 17.9131 14.8323H30.3269C30.3269 15.0931 30.3114 15.35 30.2788 15.6015H38.9506ZM38.8893 13.2938H30.1322C30.0641 13.0321 29.9785 12.7751 29.8761 12.5246H18.3662C18.2646 12.7738 18.1784 13.03 18.1102 13.2938H9.56793C9.5819 13.1654 9.59741 13.0369 9.61448 12.9092H3.44638L3.47276 12.7215H0V12.3369H3.53405L3.56974 12.14H9.73784C9.76112 12.0115 9.7875 11.8831 9.81543 11.7554H38.6434C38.752 12.2592 38.835 12.7723 38.8893 13.2938ZM38.4548 10.9862H28.966C28.7423 10.7092 28.4949 10.4519 28.2266 10.2169H20.0149C19.7472 10.4523 19.499 10.7092 19.2755 10.9862H10.004C10.0389 10.8577 10.0761 10.7292 10.1149 10.6015H3.94681L4.01509 10.3854H0V10H4.14466L4.20517 9.83154H10.3733C10.4198 9.70231 10.4695 9.57462 10.5207 9.44692H37.9373C38.1375 9.94692 38.3105 10.4615 38.4548 10.9862ZM37.6037 8.67846H10.8543C10.9148 8.54923 10.9769 8.42154 11.0413 8.29385H4.87397L4.98336 8.08154H0V7.69692H5.19362L5.29216 7.52462H11.4603C11.5355 7.39538 11.6131 7.26692 11.6922 7.14H36.7658C37.0746 7.63385 37.3554 8.14769 37.6037 8.67846ZM9.56793 16.3708H38.8901C38.835 16.8923 38.752 17.4062 38.6434 17.9092H29.4975C29.641 17.6631 29.7683 17.4062 29.8769 17.14H18.3647C18.4733 17.4062 18.5997 17.6631 18.7433 17.9092H9.81466C9.78704 17.7814 9.76118 17.6532 9.73707 17.5246H3.56974C3.5571 17.457 3.54495 17.3893 3.53328 17.3215H0V16.9369H3.47198C3.46307 16.8765 3.45454 16.8159 3.44638 16.7554H9.61448C9.59726 16.6274 9.58174 16.4992 9.56793 16.3708ZM10.0032 18.6785H38.4541C38.3105 19.2038 38.1375 19.7169 37.9373 20.2169H27.128C27.5211 20.0006 27.8895 19.7427 28.2266 19.4477H20.0149C20.3521 19.7427 20.7204 20.0006 21.1135 20.2169H10.5207C10.4698 20.0894 10.4206 19.9612 10.3733 19.8323H4.20517L4.13845 19.6469H0V19.2623H4.00966C3.98849 19.196 3.9678 19.1296 3.94759 19.0631H10.1149C10.0761 18.9354 10.0389 18.8077 10.0032 18.6785ZM10.8543 20.9862H37.6037C37.3557 21.5151 37.0759 22.0289 36.7658 22.5246H11.6922C11.6127 22.3976 11.5351 22.2694 11.4595 22.14H5.29216C5.25336 22.0738 5.21534 22.0077 5.1781 21.9408H0V21.5562H4.9694L4.87397 21.3715H11.0421C10.9776 21.2442 10.915 21.116 10.8543 20.9869V20.9862ZM13.1276 24.4477C13.2416 24.5785 13.3588 24.7062 13.4783 24.8323H34.9797C35.4377 24.3485 35.862 23.8345 36.2498 23.2938H12.2082C12.3013 23.4238 12.3959 23.5523 12.4937 23.6785H6.3256L6.47922 23.8746H0V24.2592H6.79655C6.85009 24.3231 6.9044 24.3854 6.95948 24.4477H13.1276ZM15.7011 26.7554C15.8897 26.8885 16.0813 27.0169 16.2753 27.14H32.1828C32.8969 26.6853 33.5702 26.1706 34.1953 25.6015H14.2634C14.407 25.7323 14.5536 25.8608 14.7026 25.9862H8.53448C8.61828 26.0569 8.70284 26.1262 8.78819 26.1938H0V26.5785H9.28862C9.36931 26.6385 9.45155 26.6977 9.53379 26.7554H15.7019H15.7011ZM21.1453 29.1277C22.14 29.3377 23.1711 29.4477 24.2286 29.4477C26.5981 29.4477 28.8365 28.8938 30.8196 27.9092H17.6377C17.9139 28.0462 18.194 28.1746 18.4787 28.2938H12.3106C12.4208 28.34 12.5317 28.3854 12.6427 28.4292H0V28.8138H13.7522C15.1153 29.2262 16.5623 29.4477 18.0613 29.4477C19.1188 29.4477 20.1507 29.3377 21.1453 29.1277ZM12.2082 6.37077H36.2498C35.862 5.83009 35.4377 5.31609 34.9797 4.83231H13.4783C13.3588 4.95846 13.2416 5.08615 13.1268 5.21692H6.95948L6.82293 5.37538H0V5.76H6.50328C6.44353 5.83462 6.38457 5.91 6.32638 5.98615H12.4937C12.3959 6.11308 12.3013 6.24154 12.2082 6.37077ZM14.2627 4.06308H34.1946C33.5697 3.49404 32.8966 2.97932 32.1828 2.52462H16.2753C16.0813 2.64846 15.8897 2.77692 15.7011 2.90923H9.53379C9.44845 2.97 9.3631 3.03077 9.27931 3.09308H0V3.47769H8.77966C8.69741 3.54385 8.61595 3.61077 8.53526 3.67846H14.7026C14.5536 3.80385 14.407 3.93231 14.2627 4.06308ZM17.6384 1.75538H30.8203C28.7743 0.740335 26.5173 0.2135 24.2294 0.216923C23.1711 0.216923 22.14 0.327692 21.1453 0.537692C20.1315 0.324 19.0978 0.216487 18.0613 0.216923C16.4056 0.216923 14.8143 0.487692 13.3285 0.986154H0V1.37077H18.4787C18.1946 1.49017 17.9144 1.61844 17.6384 1.75538ZM86.3131 0C86.8228 0 87.2232 0.126154 87.5141 0.378462C87.8175 0.619231 87.9688 0.955385 87.9688 1.38923C87.9688 1.82231 87.8175 2.16462 87.5141 2.41692C87.2232 2.65769 86.8228 2.77846 86.3131 2.77846C85.8041 2.77846 85.3976 2.65769 85.0942 2.41692C84.8033 2.16462 84.6574 1.82231 84.6574 1.38923C84.6574 0.956154 84.8033 0.62 85.0942 0.378462C85.3976 0.126154 85.8041 0 86.3131 0ZM87.7322 4.45538V12.3023C87.7322 12.8077 87.8175 13.1508 87.9874 13.3308C88.169 13.5115 88.4723 13.6015 88.8967 13.6015V13.98C88.5573 13.9636 88.2177 13.9515 87.878 13.9438C87.4114 13.9196 86.9441 13.9076 86.4768 13.9077C86.0043 13.9077 85.5248 13.92 85.0399 13.9438C84.6759 13.9518 84.312 13.9639 83.9483 13.98V13.6015C84.3727 13.6015 84.6698 13.5115 84.8397 13.3308C85.0213 13.1508 85.1128 12.8077 85.1128 12.3023V6.62C85.1128 6.07923 85.0275 5.68154 84.8576 5.43C84.7001 5.16538 84.3967 5.03308 83.9483 5.03308V4.65385C84.3362 4.69 84.7125 4.70769 85.0764 4.70769C85.5854 4.70769 86.0586 4.69 86.4954 4.65385C86.9439 4.60615 87.3566 4.54 87.7322 4.45538Z" fill="#B1B2B8"/>
<path id="Vector_2" fill-rule="evenodd" clip-rule="evenodd" d="M92.8528 6.11087V4.45549C92.4773 4.5401 92.0646 4.60625 91.6161 4.65395C91.1669 4.6901 90.6936 4.70779 90.1963 4.70779C89.8324 4.70779 89.4569 4.6901 89.0682 4.65395V5.03318C89.505 5.03318 89.8083 5.16549 89.9783 5.4301C90.1482 5.68241 90.2327 6.07933 90.2327 6.6201V15.6401C90.2327 16.1209 90.1482 16.4455 89.9783 16.6139C89.8208 16.7824 89.5414 16.8663 89.1411 16.8663V17.2455L90.1055 17.1916C90.5482 17.1794 90.991 17.1733 91.4338 17.1732C92.0521 17.1732 92.6348 17.1793 93.1802 17.1909C93.7381 17.2155 94.1749 17.2332 94.4907 17.2447V16.8663C93.9809 16.8663 93.5806 16.7701 93.2896 16.5778C92.9987 16.3978 92.8528 16.0247 92.8528 15.4593V13.6516C93.0127 13.7839 93.2004 13.8932 93.4169 13.9801C93.8048 14.1493 94.2354 14.2332 94.7087 14.2332C95.3519 14.2332 95.9276 14.1186 96.4373 13.8901C96.9555 13.6641 97.4111 13.3177 97.7656 12.8801C98.1411 12.4232 98.4266 11.8639 98.6206 11.2024C98.827 10.5409 98.9302 9.77164 98.9302 8.89318C98.9302 7.89549 98.7843 7.06549 98.4933 6.40395C98.2024 5.7301 97.8137 5.23164 97.3288 4.90702C96.8441 4.57028 96.2648 4.39345 95.6731 4.40164C94.9694 4.40164 94.351 4.58164 93.8172 4.94241C93.3975 5.22318 93.0763 5.61241 92.8528 6.11164V6.11087ZM92.8528 6.73087V13.2701C92.9537 13.3886 93.0755 13.487 93.2167 13.5655C93.4471 13.6855 93.7078 13.7455 93.9996 13.7455C94.545 13.7455 94.9756 13.5655 95.2914 13.2047C95.6064 12.8316 95.8306 12.3147 95.964 11.6532C96.1099 10.9801 96.1828 10.1801 96.1828 9.25395C96.1828 8.2201 96.1161 7.40779 95.9827 6.81856C95.8492 6.22933 95.6669 5.80856 95.4365 5.55625C95.206 5.30318 94.9275 5.17702 94.5993 5.17702C94.1633 5.17702 93.7629 5.34625 93.399 5.68241C93.1252 5.94395 92.9428 6.29395 92.8528 6.73087Z" fill="#B1B2B8"/>
<path id="Vector_3" d="M103.107 4.40154C103.617 4.40154 104.059 4.4677 104.436 4.6C104.824 4.72 105.103 4.84077 105.273 4.96077C105.685 5.2377 105.94 5.05693 106.037 4.41923H106.419C106.395 4.75616 106.376 5.17154 106.364 5.66385C106.352 6.14539 106.346 6.78846 106.346 7.59462H105.964C105.902 7.14359 105.786 6.7015 105.618 6.2777C105.464 5.86639 105.207 5.50026 104.872 5.21308C104.557 4.93616 104.145 4.7977 103.635 4.7977C103.284 4.7977 102.986 4.90077 102.744 5.10539C102.501 5.2977 102.38 5.58 102.38 5.95308C102.38 6.31385 102.489 6.63231 102.707 6.90923C102.926 7.17385 103.204 7.43231 103.544 7.68462C103.896 7.92539 104.26 8.18385 104.636 8.46C105.036 8.76077 105.4 9.06154 105.727 9.36231C106.041 9.63436 106.306 9.95776 106.51 10.3185C106.704 10.6669 106.801 11.0815 106.801 11.5631C106.801 12.1038 106.643 12.5785 106.328 12.9877C106.012 13.3846 105.594 13.6915 105.073 13.9077C104.563 14.1246 103.993 14.2331 103.363 14.2331C103.032 14.2368 102.702 14.2004 102.38 14.1246C102.127 14.0623 101.883 13.9715 101.652 13.8538C101.494 13.7815 101.342 13.7154 101.197 13.6554C101.073 13.5879 100.946 13.5278 100.815 13.4754C100.694 13.4392 100.584 13.4808 100.487 13.6015C100.403 13.7215 100.336 13.89 100.287 14.1062H99.9054C99.9294 13.7215 99.9481 13.2523 99.9597 12.6992C99.9721 12.1462 99.9783 11.4123 99.9783 10.4992H100.36C100.433 11.1485 100.566 11.7254 100.76 12.23C100.954 12.7238 101.215 13.1146 101.542 13.4031C101.882 13.68 102.307 13.8185 102.816 13.8185C103.023 13.8185 103.223 13.7762 103.417 13.6915C103.611 13.6069 103.768 13.4685 103.89 13.2762C104.024 13.0838 104.09 12.8377 104.09 12.5377C104.09 12.0077 103.914 11.5685 103.562 11.22C103.223 10.8715 102.786 10.4923 102.252 10.0838C101.864 9.77077 101.494 9.46462 101.143 9.16385C100.817 8.8682 100.535 8.52814 100.306 8.15385C100.084 7.76962 99.9711 7.33331 99.9783 6.89077C99.9783 6.35 100.123 5.89308 100.414 5.52C100.711 5.14304 101.108 4.85561 101.561 4.69C102.053 4.49636 102.578 4.39843 103.107 4.40154ZM125.694 4.6C125.378 4.4677 124.966 4.40154 124.456 4.40154C123.885 4.3958 123.322 4.53228 122.819 4.79846C122.322 5.05077 121.927 5.47769 121.636 6.07923V4.45616C121.26 4.54 120.847 4.60616 120.399 4.65385C119.962 4.69 119.489 4.7077 118.98 4.7077C118.616 4.7077 118.24 4.69 117.852 4.65385V5.03308C118.3 5.03308 118.604 5.16539 118.761 5.43C118.931 5.68231 119.016 6.07923 119.016 6.62V12.3023C119.016 12.8077 118.925 13.1508 118.743 13.3308C118.573 13.5115 118.276 13.6015 117.852 13.6015V13.98C118.216 13.9639 118.579 13.9518 118.943 13.9438C119.416 13.9201 119.889 13.9081 120.363 13.9077C120.787 13.9077 121.2 13.92 121.599 13.9438C122.012 13.9562 122.315 13.9685 122.509 13.98V13.6015C122.194 13.6015 121.969 13.5115 121.836 13.3308C121.702 13.1508 121.636 12.8077 121.636 12.3023V7.28769C121.636 6.89077 121.715 6.53616 121.872 6.22308C122.042 5.89846 122.26 5.64616 122.527 5.46616C122.783 5.28909 123.088 5.19455 123.401 5.19539C123.68 5.19539 123.886 5.26154 124.019 5.39385C124.165 5.51385 124.262 5.68846 124.311 5.91693C124.359 6.13308 124.383 6.39154 124.383 6.69231V12.3023C124.383 12.8077 124.316 13.1508 124.183 13.3308C124.062 13.5115 123.838 13.6015 123.51 13.6015V13.98C123.728 13.9685 124.049 13.9562 124.475 13.9438C125.335 13.8952 126.198 13.8952 127.058 13.9438C127.507 13.9562 127.84 13.9685 128.058 13.98V13.6015C127.67 13.6015 127.397 13.5115 127.24 13.3308C127.082 13.1508 127.003 12.8077 127.003 12.3023V7.3677L127.002 7.31154L126.999 7.12923C127.027 6.8277 127.109 6.53343 127.24 6.26C127.41 5.93462 127.628 5.67616 127.895 5.48385C128.162 5.29154 128.453 5.19539 128.768 5.19539C129.083 5.19539 129.314 5.26154 129.46 5.39385C129.617 5.51385 129.72 5.68846 129.769 5.91693C129.83 6.13308 129.86 6.39154 129.86 6.69231V12.3023C129.86 12.8077 129.793 13.1508 129.66 13.3308C129.539 13.5115 129.314 13.6015 128.986 13.6015V13.98C129.205 13.9685 129.526 13.9562 129.951 13.9438C130.381 13.9196 130.812 13.9076 131.242 13.9077C131.692 13.9077 132.146 13.92 132.607 13.9438C133.068 13.9562 133.414 13.9685 133.645 13.98V13.6015C133.22 13.6015 132.917 13.5115 132.734 13.3308C132.565 13.1508 132.48 12.8077 132.48 12.3023V7.45C132.48 6.84846 132.437 6.3677 132.353 6.00693C132.267 5.63385 132.129 5.33385 131.934 5.10539C131.74 4.88846 131.485 4.72077 131.17 4.6C130.855 4.4677 130.442 4.40154 129.933 4.40154C129.314 4.40154 128.732 4.5277 128.186 4.78C127.663 5.0277 127.24 5.5 126.915 6.19693C126.904 6.13325 126.891 6.06989 126.876 6.00693C126.791 5.63385 126.652 5.33385 126.458 5.10539C126.264 4.88846 126.009 4.72077 125.694 4.6ZM116.424 12.0138V4.45539C116.048 4.54 115.636 4.60616 115.187 4.65385C114.751 4.69 114.277 4.7077 113.768 4.7077C113.404 4.7077 113.028 4.69 112.64 4.65385V5.03308C113.089 5.03308 113.392 5.16539 113.55 5.43C113.72 5.68231 113.804 6.07923 113.804 6.62V11.3462C113.804 11.7431 113.72 12.1038 113.55 12.4285C113.406 12.7257 113.186 12.9807 112.913 13.1685C112.658 13.349 112.352 13.4439 112.039 13.4392C111.737 13.4392 111.506 13.3785 111.348 13.2585C111.184 13.1166 111.07 12.9275 111.02 12.7177C110.969 12.4562 110.944 12.1902 110.947 11.9238V4.45539C110.572 4.54 110.159 4.60616 109.711 4.65385C109.274 4.69 108.801 4.7077 108.292 4.7077C107.928 4.7077 107.552 4.69 107.164 4.65385V5.03308C107.612 5.03308 107.915 5.16539 108.073 5.43C108.243 5.68231 108.327 6.07923 108.327 6.62V11.1838C108.327 11.7731 108.37 12.2546 108.455 12.6269C108.54 13 108.686 13.3008 108.891 13.5292C109.074 13.7338 109.322 13.9023 109.638 14.0346C109.953 14.1662 110.366 14.2331 110.875 14.2331C111.506 14.2331 112.076 14.1062 112.585 13.8538C113.107 13.5892 113.513 13.1562 113.804 12.5554V14.1785C114.211 14.0793 114.624 14.0129 115.042 13.98C115.479 13.9438 115.951 13.9262 116.461 13.9262C116.837 13.9262 117.213 13.9438 117.589 13.98V13.6015C117.152 13.6015 116.849 13.4754 116.679 13.2223C116.509 12.9577 116.424 12.5554 116.424 12.0146V12.0138Z" fill="#B1B2B8"/>
<path id="Vector_4" fill-rule="evenodd" clip-rule="evenodd" d="M81.2296 4.88842C80.5624 4.5638 79.7858 4.40149 78.9005 4.40149C78.0393 4.40149 77.2689 4.5638 76.59 4.88842C75.9227 5.21303 75.3952 5.73611 75.0072 6.45765C74.6309 7.17919 74.4424 8.13534 74.4424 9.32611C74.4424 10.5169 74.6309 11.4723 75.0065 12.1946C75.3944 12.9038 75.922 13.4207 76.5892 13.7453C77.2689 14.07 78.0393 14.233 78.9005 14.233C79.7858 14.233 80.5624 14.07 81.2296 13.7453C81.8961 13.4207 82.4183 12.9038 82.7938 12.1946C83.1701 11.473 83.3578 10.5169 83.3578 9.32611C83.3578 8.13534 83.1701 7.17996 82.7938 6.45765C82.4183 5.73611 81.8961 5.21303 81.2296 4.88842ZM77.6816 5.84457C78.009 5.12303 78.4156 4.76226 78.9005 4.76226C79.3978 4.76226 79.8044 5.12303 80.1194 5.84457C80.4468 6.5538 80.6105 7.71457 80.6105 9.32611C80.6105 10.9376 80.4468 12.0984 80.1194 12.8076C79.8044 13.5169 79.3978 13.8723 78.9005 13.8723C78.4156 13.8723 78.009 13.5169 77.6816 12.8076C77.3542 12.0984 77.1905 10.9376 77.1905 9.32611C77.1905 7.71457 77.3534 6.5538 77.6816 5.84457ZM68.5094 17.3715C67.7568 17.3715 67.0841 17.3053 66.4898 17.173C65.9079 17.053 65.4471 16.8607 65.1072 16.5961C64.7798 16.343 64.6161 16.0307 64.6161 15.6576C64.6161 15.2846 64.7852 14.9484 65.1251 14.6476C65.4649 14.3592 65.9684 14.1307 66.6357 13.9623L66.7986 14.2507C66.5903 14.4058 66.4169 14.6023 66.2896 14.8276C66.1927 15.0446 66.1438 15.2669 66.1438 15.4953C66.1438 16.0007 66.3742 16.3853 66.8358 16.6492C67.3091 16.9261 67.9453 17.0646 68.746 17.0646C69.2915 17.0646 69.7771 16.9923 70.2015 16.8484C70.6383 16.7038 70.9774 16.4869 71.2202 16.1992C71.4755 15.91 71.6027 15.5553 71.6027 15.1346C71.6027 14.7738 71.4693 14.4669 71.2024 14.2146C70.9355 13.9738 70.4017 13.8538 69.601 13.8538H68.4729C67.9764 13.8538 67.5388 13.8 67.1633 13.6915C66.7986 13.5838 66.5139 13.4146 66.3075 13.1861C66.1019 12.9461 65.9987 12.6453 65.9987 12.2846C65.9987 11.7792 66.1989 11.3346 66.5992 10.9492C66.9127 10.6476 67.3456 10.3607 67.898 10.0892C67.5348 10.0444 67.1781 9.95793 66.8351 9.83149C66.2896 9.62688 65.859 9.3138 65.544 8.89303C65.2283 8.47226 65.0708 7.93149 65.0708 7.26996C65.0708 6.60842 65.2283 6.06688 65.544 5.64611C65.859 5.21303 66.2896 4.89995 66.8358 4.70765C67.3813 4.5038 67.9996 4.40149 68.6909 4.40149C69.383 4.40149 70.0014 4.5038 70.5468 4.70842C70.9068 4.83457 71.2156 5.0138 71.4755 5.24457C71.6299 5.0238 71.8177 4.82688 72.0388 4.6538C72.4515 4.34149 72.8945 4.18457 73.367 4.18457C73.755 4.18457 74.0467 4.29303 74.2407 4.50995C74.4471 4.7138 74.5502 4.98457 74.5502 5.32149C74.5502 5.68226 74.4525 5.95226 74.2585 6.13303C74.0646 6.30226 73.8465 6.38611 73.6037 6.38611C73.3901 6.38331 73.1843 6.30657 73.0218 6.16919C72.8511 6.02457 72.7549 5.80842 72.7308 5.51996C72.7099 5.26149 72.7828 4.94149 72.9496 4.55842C72.5958 4.70765 72.3227 4.87765 72.1303 5.06919C71.9853 5.20785 71.8586 5.36423 71.7533 5.53457C71.7827 5.57072 71.8115 5.60842 71.8386 5.64611C72.1544 6.06688 72.3119 6.60765 72.3119 7.26919C72.3119 7.93072 72.1544 8.47226 71.8386 8.89303C71.5236 9.3138 71.093 9.62688 70.5468 9.83149C70.0014 10.0353 69.383 10.1376 68.6909 10.1376C68.5874 10.1378 68.484 10.1354 68.3806 10.1307C68.2169 10.2407 68.0594 10.3576 67.9089 10.4807C67.8154 10.5532 67.7404 10.6465 67.6898 10.7529C67.6393 10.8594 67.6147 10.9762 67.6179 11.0938C67.6179 11.4784 67.8608 11.6707 68.3457 11.6707H70.3288C70.996 11.6707 71.5903 11.7492 72.1117 11.9053C72.6455 12.0623 73.0637 12.3207 73.367 12.6815C73.6828 13.03 73.8403 13.4869 73.8403 14.0523C73.8403 14.6415 73.6464 15.1884 73.2584 15.6938C72.8821 16.1992 72.3002 16.6015 71.5112 16.9023C70.7229 17.2153 69.7221 17.3715 68.5094 17.3715ZM68.6909 9.81303C69.0191 9.81303 69.2728 9.63303 69.4552 9.27226C69.6375 8.89919 69.7283 8.23149 69.7283 7.26996C69.7283 6.30765 69.6375 5.64611 69.4552 5.28534C69.2736 4.91226 69.0191 4.72611 68.6917 4.72611C68.3759 4.72611 68.1215 4.91226 67.9275 5.28534C67.7452 5.64611 67.6544 6.30765 67.6544 7.26996C67.6544 8.23149 67.7452 8.89919 67.9275 9.27226C68.1215 9.63303 68.3759 9.81303 68.6909 9.81303ZM62.2606 4.88842C61.5933 4.5638 60.8175 4.40149 59.9322 4.40149C59.071 4.40149 58.3006 4.5638 57.6217 4.88842C56.9545 5.21303 56.4269 5.73611 56.0389 6.45765C55.6627 7.17919 55.4741 8.13534 55.4741 9.32611C55.4741 10.5169 55.6627 11.4723 56.0382 12.1946C56.4261 12.9038 56.9537 13.4207 57.6209 13.7453C58.3006 14.07 59.071 14.233 59.9322 14.233C60.8175 14.233 61.5941 14.07 62.2606 13.7453C62.9278 13.4207 63.4492 12.9038 63.8255 12.1946C64.2018 11.473 64.3895 10.5169 64.3895 9.32611C64.3895 8.13534 64.2018 7.17996 63.8255 6.45765C63.45 5.73611 62.9278 5.21303 62.2606 4.88842ZM58.7126 5.84457C59.0408 5.12303 59.4465 4.76226 59.9322 4.76226C60.4288 4.76226 60.8353 5.12303 61.1503 5.84457C61.4785 6.5538 61.6422 7.71457 61.6422 9.32611C61.6422 10.9376 61.4785 12.0984 61.1511 12.8076C60.8353 13.5169 60.4296 13.8723 59.9322 13.8723C59.4465 13.8723 59.04 13.5169 58.7126 12.8076C58.3852 12.0984 58.2214 10.9376 58.2214 9.32611C58.2214 7.71457 58.3852 6.5538 58.7126 5.84457Z" fill="#B1B2B8"/>
<path id="Vector_5" d="M50.5738 1.2085V1.57003C50.1618 1.58157 49.846 1.62927 49.628 1.71388C49.5282 1.74738 49.438 1.80423 49.3651 1.87962C49.2922 1.955 49.2386 2.04671 49.209 2.14696C49.1369 2.3508 49.1004 2.67619 49.1004 3.1208V12.2846C49.1004 12.657 49.1245 12.9339 49.1733 13.1146C49.2339 13.2947 49.3433 13.4146 49.5008 13.4754C49.6707 13.5354 49.9197 13.5654 50.2464 13.5654H51.1386C51.5498 13.5654 51.9385 13.4693 52.3024 13.277C52.6671 13.0847 52.9937 12.8139 53.2846 12.4647C53.5915 12.0768 53.8372 11.6449 54.0132 11.1839C54.2071 10.6916 54.3522 10.1439 54.4492 9.54234H54.8682C54.8317 9.95157 54.8139 10.4808 54.8139 11.13C54.8139 11.407 54.8193 11.8093 54.8317 12.3385C54.8441 12.8677 54.8798 13.4154 54.9403 13.98C54.2434 13.9546 53.546 13.9425 52.8486 13.9439C52.0727 13.9323 51.3807 13.9262 50.774 13.9262H49.6102C49.1369 13.9262 48.6271 13.9323 48.0817 13.9439C47.5355 13.9439 46.9839 13.95 46.426 13.9623C45.8674 13.9623 45.3398 13.9685 44.8433 13.98V13.6193C45.2312 13.5954 45.5221 13.547 45.7161 13.4754C45.9101 13.4031 46.0373 13.2585 46.0986 13.0423C46.1708 12.8254 46.2072 12.5008 46.2072 12.0677V3.1208C46.2072 2.67542 46.1708 2.35157 46.0986 2.14696C46.0747 2.04689 46.0254 1.95456 45.9553 1.87875C45.8852 1.80294 45.7967 1.74618 45.6983 1.71388C45.5043 1.62927 45.2188 1.58157 44.8433 1.56927V1.2085C45.801 1.24368 46.7594 1.26163 47.7178 1.26234C48.2516 1.26234 48.773 1.25696 49.282 1.24465C49.8041 1.23234 50.2347 1.2208 50.5738 1.2085Z" fill="#B1B2B8"/>
<path id="Vector_6" fill-rule="evenodd" clip-rule="evenodd" d="M131.796 28.887C131.771 28.7578 131.788 28.5893 131.849 28.3817L134.412 19.1763C134.002 19.3431 133.577 19.4731 133.143 19.5647C132.699 19.6517 132.189 19.6986 131.613 19.7078L131.522 19.9801C131.949 19.9801 132.215 20.0493 132.32 20.1878C132.424 20.3263 132.437 20.5417 132.359 20.8355L131.752 23.104C131.714 22.9945 131.648 22.8966 131.561 22.8193C131.413 22.6809 131.208 22.6117 130.947 22.6117C130.424 22.6117 129.94 22.7286 129.495 22.9617C129.048 23.2039 128.646 23.5197 128.305 23.8955C127.947 24.2763 127.644 24.7039 127.403 25.1663C127.165 25.6162 126.977 26.0899 126.84 26.5793C126.716 27.0009 126.65 27.4372 126.644 27.8763C126.644 28.2909 126.71 28.6324 126.84 28.9001C126.971 29.1593 127.15 29.354 127.376 29.4832C127.603 29.6047 127.856 29.6647 128.135 29.6647C128.562 29.6647 128.946 29.5401 129.286 29.2893C129.626 29.0301 129.944 28.6324 130.241 28.0963C130.365 27.8778 130.49 27.6324 130.614 27.3601L130.528 27.6817C130.449 27.9349 130.397 28.1955 130.371 28.4593C130.354 28.684 130.371 28.8747 130.424 29.0301C130.528 29.4532 130.851 29.6655 131.391 29.6655C131.592 29.6655 131.796 29.6263 132.006 29.5486C132.215 29.4709 132.411 29.337 132.594 29.1463C132.786 28.9563 132.939 28.6847 133.052 28.3293L133.366 27.3832H133.118L132.908 27.9663C132.752 28.4078 132.603 28.7055 132.464 28.8609C132.333 29.0086 132.198 29.0817 132.058 29.0817C131.91 29.0817 131.823 29.017 131.796 28.887ZM131.099 25.5486C131 25.8647 130.893 26.1655 130.777 26.4493C130.559 27.0032 130.328 27.4786 130.083 27.8763C129.848 28.2647 129.617 28.567 129.391 28.784C129.164 28.9909 128.963 29.0947 128.789 29.0947C128.623 29.0947 128.501 29.017 128.423 28.8617C128.353 28.697 128.318 28.4509 128.318 28.1224C128.318 27.6555 128.37 27.1801 128.475 26.6963C128.58 26.204 128.723 25.7324 128.906 25.2832C129.075 24.8616 129.285 24.4576 129.534 24.077C129.77 23.714 130.018 23.4286 130.28 23.2209C130.55 23.0132 130.816 22.9101 131.077 22.9101C131.252 22.9101 131.391 22.9709 131.496 23.0917C131.569 23.1701 131.625 23.284 131.664 23.4347L131.099 25.5486Z" fill="#B1B2B8"/>
<path id="Vector_7" d="M123.094 29.4829H121.486L123.055 23.8952C123.134 23.636 123.16 23.4544 123.134 23.3506C123.108 23.2467 123.029 23.1952 122.898 23.1952C122.733 23.1952 122.58 23.2775 122.44 23.4413C122.301 23.6052 122.157 23.8952 122.009 24.3106L121.786 24.919H121.538L121.878 23.9467C122 23.6006 122.152 23.3337 122.336 23.1429C122.519 22.9444 122.72 22.806 122.938 22.7283C123.156 22.6506 123.378 22.6113 123.604 22.6113C123.883 22.6113 124.088 22.6675 124.219 22.7806C124.358 22.8929 124.446 23.0398 124.481 23.2213C124.525 23.417 124.534 23.6188 124.506 23.8175C124.489 24.0252 124.454 24.2283 124.402 24.4267L124.191 25.2398L124.245 25.1013C124.489 24.4875 124.724 23.999 124.951 23.636C125.187 23.2644 125.435 23.0006 125.697 22.8452C125.953 22.6908 126.247 22.6099 126.547 22.6113C126.86 22.6113 127.1 22.7021 127.266 22.8837C127.441 23.0652 127.528 23.2898 127.528 23.5583C127.528 23.7737 127.475 23.9775 127.371 24.1675C127.269 24.3458 127.125 24.497 126.952 24.6083C126.787 24.7121 126.595 24.7637 126.377 24.7637C126.159 24.7637 125.984 24.7075 125.853 24.5952C125.732 24.4829 125.67 24.3183 125.67 24.1029C125.67 23.9121 125.714 23.7398 125.801 23.5837C125.885 23.4316 126.001 23.2992 126.141 23.1952C126.281 23.0829 126.434 23.0052 126.599 22.9613C126.581 22.9435 126.558 22.9303 126.534 22.9229C126.504 22.9137 126.473 22.9093 126.442 22.9098C126.251 22.9098 126.054 22.979 125.853 23.1175C125.653 23.2467 125.444 23.459 125.226 23.7529C125.008 24.0467 124.786 24.4352 124.559 24.919C124.304 25.4912 124.076 26.0755 123.879 26.6698C123.78 26.9575 123.681 27.2667 123.582 27.5983L123.094 29.4829Z" fill="#B1B2B8"/>
<path id="Vector_8" fill-rule="evenodd" clip-rule="evenodd" d="M118.208 27.4801L118.153 27.6817C118.07 27.9744 118.013 28.2738 117.983 28.5763C117.957 28.8532 118 29.0863 118.113 29.2763C118.288 29.5355 118.584 29.6655 119.003 29.6655C119.203 29.6655 119.404 29.6263 119.605 29.5486C119.813 29.4709 120.01 29.337 120.193 29.1463C120.376 28.9478 120.529 28.6709 120.65 28.317L120.978 27.3709H120.729L120.533 27.954C120.376 28.4032 120.224 28.7017 120.076 28.8486C119.927 28.9947 119.783 29.0686 119.643 29.0686C119.53 29.0686 119.456 29.034 119.421 28.9647C119.394 28.8767 119.385 28.784 119.395 28.6924C119.412 28.5825 119.438 28.4742 119.473 28.3686L121.161 22.6117C120.898 22.6739 120.632 22.7173 120.363 22.7417C120.093 22.7678 119.801 22.7847 119.487 22.7932L119.297 23.487C119.289 23.3109 119.238 23.1394 119.147 22.9878C119.079 22.8696 118.979 22.7722 118.859 22.7059C118.739 22.6396 118.604 22.607 118.466 22.6117C118.083 22.6117 117.7 22.7286 117.316 22.9617C116.908 23.216 116.542 23.5309 116.23 23.8955C115.878 24.2931 115.571 24.7277 115.315 25.1917C115.058 25.6569 114.852 26.1482 114.7 26.657C114.558 27.1149 114.483 27.5909 114.478 28.0701C114.478 28.5547 114.592 28.9432 114.818 29.237C115.045 29.5224 115.393 29.6647 115.864 29.6647C116.195 29.6647 116.514 29.5701 116.819 29.3801C117.133 29.1893 117.429 28.874 117.708 28.434C117.881 28.1686 118.047 27.8509 118.208 27.4801ZM117.081 28.7963C116.88 28.9778 116.701 29.0686 116.545 29.0686C116.413 29.0686 116.313 29.004 116.244 28.874C116.182 28.7355 116.152 28.507 116.152 28.187C116.152 27.7286 116.204 27.2578 116.309 26.774C116.413 26.2893 116.553 25.8232 116.728 25.374C116.911 24.924 117.111 24.5224 117.329 24.1678C117.547 23.814 117.765 23.5324 117.983 23.3247C118.21 23.117 118.423 23.014 118.624 23.014C118.833 23.014 118.981 23.1178 119.068 23.3247C119.155 23.5124 119.178 23.764 119.136 24.0786L118.75 25.4955L118.794 25.2701C118.654 25.8232 118.488 26.3332 118.296 26.8001C118.13 27.2175 117.929 27.6207 117.695 28.0055C117.486 28.3424 117.281 28.6063 117.081 28.7963ZM112.72 28.3817C112.659 28.5893 112.642 28.7578 112.668 28.887C112.694 29.017 112.782 29.0817 112.93 29.0817C113.069 29.0817 113.204 29.0086 113.335 28.8617C113.474 28.7055 113.623 28.4078 113.779 27.9663L113.989 27.3832H114.237L113.924 28.3293C113.81 28.684 113.658 28.9563 113.466 29.1463C113.303 29.323 113.102 29.4605 112.877 29.5486C112.681 29.6241 112.473 29.6637 112.263 29.6655C111.723 29.6655 111.4 29.4532 111.295 29.0301C111.24 28.8451 111.222 28.6511 111.243 28.4593C111.26 28.2347 111.312 27.9747 111.4 27.6817L111.486 27.3601C111.361 27.6324 111.236 27.8778 111.112 28.0963C110.816 28.6324 110.498 29.0301 110.158 29.2886C109.826 29.5367 109.422 29.6692 109.006 29.6655C108.728 29.6655 108.475 29.604 108.248 29.484C108.015 29.347 107.828 29.1436 107.712 28.9001C107.581 28.6324 107.516 28.2909 107.516 27.8763C107.516 27.4786 107.581 27.0455 107.712 26.5793C107.842 26.104 108.03 25.6332 108.274 25.1663C108.515 24.7041 108.819 24.2765 109.176 23.8955C109.534 23.5063 109.93 23.1955 110.366 22.9617C110.814 22.7277 111.312 22.6074 111.818 22.6117C112.079 22.6117 112.284 22.6809 112.432 22.8193C112.518 22.894 112.582 22.9886 112.624 23.104L113.23 20.8355C113.309 20.5417 113.296 20.3255 113.191 20.187C113.087 20.0486 112.82 19.9793 112.394 19.9793L112.485 19.7078C112.999 19.7049 113.511 19.657 114.015 19.5647C114.449 19.4731 114.874 19.3431 115.284 19.1763L112.72 28.3817ZM111.648 26.4493C111.764 26.1647 111.872 25.8647 111.97 25.5486L112.536 23.4347C112.508 23.3085 112.451 23.1908 112.367 23.0917C112.316 23.0321 112.252 22.9848 112.179 22.9533C112.107 22.9219 112.028 22.9071 111.949 22.9101C111.688 22.9101 111.422 23.014 111.152 23.2209C110.889 23.4286 110.641 23.714 110.406 24.077C110.157 24.4572 109.947 24.861 109.778 25.2824C109.592 25.7401 109.448 26.2132 109.347 26.6963C109.244 27.1648 109.191 27.6429 109.189 28.1224C109.189 28.4509 109.224 28.697 109.294 28.8609C109.373 29.017 109.495 29.0947 109.66 29.0947C109.835 29.0947 110.035 28.9909 110.262 28.7832C110.489 28.5678 110.719 28.2647 110.955 27.8755C111.227 27.4207 111.459 26.9435 111.648 26.4493Z" fill="#B1B2B8"/>
<path id="Vector_9" d="M100.314 29.4829H101.923L102.074 28.8967L102.066 28.939C102.232 28.3336 102.419 27.7506 102.629 27.1883C102.832 26.6516 103.059 26.1239 103.308 25.6067C103.544 25.1221 103.779 24.699 104.015 24.3359C104.25 23.9729 104.477 23.6921 104.695 23.4929C104.913 23.2852 105.113 23.1821 105.296 23.1821C105.444 23.1821 105.536 23.2336 105.571 23.3375C105.607 23.4553 105.612 23.5805 105.584 23.7006C105.558 23.8411 105.523 23.9798 105.479 24.1159L104.29 27.6813C104.167 28.0444 104.097 28.3552 104.08 28.6144C104.063 28.8736 104.111 29.0859 104.224 29.2498C104.312 29.3798 104.433 29.479 104.59 29.5482C104.756 29.6252 104.952 29.6652 105.179 29.6652C105.388 29.6652 105.597 29.6259 105.807 29.5482C106.025 29.479 106.225 29.349 106.408 29.159C106.6 28.969 106.757 28.6921 106.879 28.329L107.206 27.3829H106.957L106.748 27.9659C106.583 28.4159 106.426 28.7136 106.278 28.8606C106.138 29.0083 106.003 29.0813 105.872 29.0813C105.732 29.0813 105.645 29.0252 105.61 28.9121C105.575 28.7921 105.597 28.6144 105.676 28.3813L106.957 24.569C107.071 24.2321 107.127 23.9167 107.127 23.6229C107.136 23.3206 107.053 23.0783 106.879 22.8967C106.713 22.7067 106.416 22.6121 105.99 22.6121C105.667 22.6121 105.357 22.6813 105.061 22.819C104.765 22.9575 104.477 23.199 104.198 23.5452C103.919 23.8821 103.631 24.3406 103.335 24.919C103.138 25.3092 102.958 25.7072 102.794 26.1121L103.23 24.4267C103.283 24.219 103.322 24.0113 103.348 23.8044C103.374 23.589 103.365 23.3936 103.322 23.2206C103.28 23.0418 103.173 22.8848 103.021 22.7798C102.873 22.6675 102.655 22.6113 102.367 22.6113C102.018 22.6113 101.7 22.7067 101.412 22.8967C101.125 23.0867 100.889 23.4367 100.706 23.9467L100.366 24.919H100.615L100.837 24.3098C100.994 23.8867 101.138 23.5967 101.269 23.4413C101.408 23.2775 101.56 23.1952 101.726 23.1952C101.848 23.1952 101.923 23.2298 101.949 23.299C101.983 23.3683 101.993 23.4544 101.975 23.5583C101.955 23.672 101.929 23.7845 101.896 23.8952L100.314 29.4829Z" fill="#B1B2B8"/>
<path id="Vector_10" fill-rule="evenodd" clip-rule="evenodd" d="M96.9812 27.6813L97.0363 27.4798C96.8966 27.8109 96.7295 28.1299 96.5367 28.4336C96.2573 28.8736 95.961 29.1898 95.6467 29.3798C95.3418 29.5698 95.0237 29.6644 94.6924 29.6644C94.2215 29.6644 93.8731 29.5221 93.6466 29.2367C93.4192 28.9429 93.306 28.5544 93.306 28.0698C93.306 27.6206 93.3804 27.1498 93.5286 26.6567C93.6799 26.1478 93.8859 25.6566 94.1431 25.1913C94.3994 24.7273 94.7064 24.2926 95.0586 23.8952C95.37 23.5306 95.7361 23.2156 96.1441 22.9613C96.5273 22.7283 96.9114 22.6113 97.2947 22.6113C97.5911 22.6113 97.8176 22.7367 97.9751 22.9883C98.0589 23.1167 98.1093 23.2829 98.1256 23.4867L98.3149 22.7929C98.6284 22.7844 98.9209 22.7675 99.1909 22.7413C99.4702 22.7152 99.7355 22.6721 99.9885 22.6113L98.3017 28.369C98.2663 28.4745 98.24 28.5829 98.2234 28.6929C98.2135 28.7845 98.2224 28.8771 98.2498 28.9652C98.2847 29.0344 98.3584 29.069 98.4717 29.069C98.6113 29.069 98.7548 28.9959 98.903 28.849C99.0512 28.7021 99.2041 28.4029 99.3608 27.9544L99.5571 27.3706H99.8054L99.4787 28.3167C99.3569 28.6713 99.2041 28.9475 99.021 29.1475C98.8581 29.3237 98.657 29.461 98.4329 29.549C98.2414 29.6251 98.0371 29.6648 97.8308 29.6659C97.4126 29.6659 97.1162 29.5359 96.9417 29.2767C96.8284 29.0867 96.7849 28.8536 96.8113 28.5767C96.8418 28.2742 96.8986 27.9741 96.9812 27.6813ZM95.3721 29.0683C95.5296 29.0683 95.708 28.9775 95.909 28.7959C96.1092 28.6059 96.314 28.3421 96.5235 28.0052C96.7322 27.6683 96.9331 27.2667 97.1248 26.7998C97.3164 26.3329 97.4824 25.8229 97.6221 25.269L97.5779 25.4952L97.9642 24.079C98.0054 23.7636 97.9829 23.5121 97.8967 23.3252C97.8091 23.1175 97.6609 23.0136 97.4514 23.0136C97.2512 23.0136 97.0379 23.1175 96.8113 23.3244C96.5933 23.5321 96.3753 23.8129 96.1573 24.1675C95.9392 24.5213 95.7383 24.9236 95.5552 25.3729C95.3795 25.8281 95.2397 26.2962 95.137 26.7729C95.0345 27.2373 94.982 27.7113 94.9803 28.1867C94.9803 28.5067 95.0105 28.7359 95.0718 28.8736C95.1417 29.0036 95.2417 29.0683 95.3721 29.0683Z" fill="#B1B2B8"/>
<path id="Vector_11" d="M94.2129 23.0521L94.2525 22.7928H92.6946L93.3106 20.6667C93.0528 20.7296 92.7906 20.7731 92.5262 20.7967C92.2562 20.8221 91.9637 20.8398 91.6503 20.8482L91.0878 22.7928H89.8976L89.8324 23.0521H91.0133L89.6749 27.6813C89.5616 28.0613 89.5228 28.4028 89.5578 28.7051C89.6012 28.999 89.723 29.2328 89.924 29.4051C90.1327 29.5782 90.4337 29.6651 90.8263 29.6651C91.2709 29.6651 91.6541 29.5482 91.9769 29.3144C92.2997 29.0813 92.5526 28.6967 92.7357 28.1605L92.9972 27.3828H92.7481L92.5526 27.9144C92.3951 28.3467 92.2213 28.649 92.0289 28.8221C91.8458 28.9951 91.6627 29.0813 91.4796 29.0813C91.4076 29.0837 91.3361 29.0696 91.2704 29.0403C91.2048 29.011 91.1468 28.9671 91.1009 28.9121C91.0133 28.8005 91.0047 28.6236 91.0746 28.3813L92.6193 23.0521H94.2129ZM89.8821 20.2128C89.7952 20.4375 89.6772 20.7667 89.5291 21.1982C89.3894 21.6213 89.2505 22.1751 89.1109 22.8575H88.8494C88.875 22.7367 88.8928 22.6113 88.9014 22.4821C88.9181 22.3661 88.9269 22.2492 88.9278 22.1321C88.9278 21.7944 88.8579 21.5013 88.7183 21.2505C88.5841 20.9875 88.3689 20.7739 88.1038 20.6405C87.8338 20.4851 87.4847 20.4075 87.0579 20.4075C86.5955 20.4075 86.2029 20.5282 85.881 20.7705C85.5582 21.0036 85.3968 21.3798 85.3968 21.8982C85.3968 22.2182 85.4705 22.5213 85.6187 22.8059C85.7762 23.0828 85.9725 23.3551 86.2076 23.6228C86.452 23.8821 86.7088 24.1459 86.9788 24.4136C87.2496 24.6728 87.5025 24.9413 87.7376 25.2175C87.9727 25.4944 88.1651 25.7882 88.3133 26.099C88.47 26.4021 88.5484 26.7344 88.5484 27.0975C88.5484 27.5559 88.4351 27.949 88.2085 28.2775C87.9875 28.6001 87.6971 28.8702 87.3582 29.0682C87.0029 29.2696 86.6197 29.4181 86.2208 29.509C85.8368 29.6107 85.4412 29.6631 85.0438 29.6651C84.6512 29.6651 84.3246 29.6344 84.0631 29.5744C83.8396 29.5326 83.6237 29.4582 83.4222 29.3536C83.2511 29.2605 83.0809 29.1657 82.9117 29.069C82.8347 29.0049 82.7459 28.9564 82.6503 28.9259C82.5893 28.8956 82.5228 28.8778 82.4547 28.8736C82.3407 28.8736 82.2453 28.9298 82.1669 29.0428C82.064 29.2117 81.9765 29.3893 81.9054 29.5736H81.6432C81.8592 29.0464 82.0386 28.5051 82.1801 27.9536C82.2841 27.5559 82.402 27.059 82.5331 26.4621H82.7946C82.7581 26.6338 82.7275 26.8067 82.703 26.9805C82.6766 27.1536 82.6681 27.3267 82.6766 27.4998C82.703 28.1044 82.89 28.5713 83.2391 28.8998C83.5968 29.2282 84.1197 29.3921 84.8079 29.3921C85.3922 29.3921 85.8328 29.2713 86.1292 29.0298C86.4256 28.779 86.5738 28.4159 86.5738 27.9405C86.5738 27.5775 86.504 27.2482 86.3643 26.9551C86.2325 26.6503 86.0563 26.3662 85.8414 26.1121C85.6197 25.849 85.3887 25.594 85.1485 25.3475C84.9079 25.1009 84.6766 24.8456 84.4549 24.5821C84.2409 24.3203 84.0607 24.0329 83.9188 23.7267C83.776 23.3993 83.7049 23.0456 83.7101 22.689C83.7101 22.2575 83.8016 21.8813 83.9847 21.5613C84.1692 21.2492 84.4186 20.9796 84.7164 20.7705C85.0218 20.5544 85.3624 20.392 85.7234 20.2905C86.0747 20.1806 86.4406 20.1238 86.8089 20.1221C87.2798 20.1221 87.6678 20.1782 87.9727 20.2913C88.2784 20.4028 88.5398 20.5375 88.7578 20.6928L89.0061 20.8482C89.0845 20.8828 89.1458 20.8998 89.1892 20.8998C89.311 20.8998 89.4553 20.6713 89.6206 20.2128H89.8821Z" fill="#B1B2B8"/>
<path id="Vector_12" fill-rule="evenodd" clip-rule="evenodd" d="M77.2588 28.887C77.2324 28.7578 77.2502 28.5893 77.3115 28.3817L79.8742 19.1763C79.4639 19.3431 79.0394 19.4731 78.6057 19.5647C78.1611 19.6517 77.6514 19.6986 77.0757 19.7078L76.9841 19.9801C77.4108 19.9801 77.6777 20.0493 77.7817 20.1878C77.8864 20.3263 77.8996 20.5417 77.8213 20.8355L77.2145 23.104C77.1764 22.9945 77.1107 22.8965 77.0237 22.8193C76.8755 22.6809 76.6707 22.6117 76.4092 22.6117C75.8855 22.6117 75.4021 22.7286 74.9576 22.9617C74.5104 23.2039 74.1079 23.5197 73.7674 23.8955C73.4096 24.2763 73.106 24.7039 72.8651 25.1663C72.6276 25.6162 72.439 26.0899 72.3026 26.5793C72.1784 27.0009 72.1124 27.4372 72.1063 27.8763C72.1063 28.2909 72.1722 28.6324 72.3026 28.9001C72.4337 29.1593 72.6121 29.354 72.8387 29.4832C73.0652 29.6047 73.3182 29.6647 73.5975 29.6647C74.0242 29.6647 74.4083 29.5401 74.7481 29.2893C75.0879 29.0301 75.406 28.6324 75.7024 28.0963C75.8265 27.8778 75.9514 27.6324 76.0764 27.3601L75.991 27.6817C75.9117 27.9348 75.8589 28.1954 75.8335 28.4593C75.8127 28.6511 75.8303 28.8451 75.8855 29.0301C75.9902 29.4532 76.3122 29.6655 76.8538 29.6655C77.0539 29.6655 77.2588 29.6263 77.4682 29.5486C77.6777 29.4709 77.8733 29.337 78.0564 29.1463C78.2488 28.9563 78.4008 28.6847 78.5141 28.3293L78.8283 27.3832H78.5801L78.3706 27.9663C78.2139 28.4078 78.0657 28.7055 77.926 28.8609C77.7949 29.0086 77.6599 29.0817 77.5202 29.0817C77.3728 29.0817 77.2851 29.017 77.2588 28.887ZM76.5605 25.5486C76.4627 25.8647 76.3557 26.1655 76.2385 26.4493C76.0213 27.0032 75.7901 27.4786 75.5457 27.8763C75.3106 28.2647 75.0794 28.567 74.8528 28.784C74.6263 28.9909 74.4261 29.0947 74.2507 29.0947C74.0855 29.0947 73.9637 29.017 73.8853 28.8617C73.8155 28.697 73.7806 28.4509 73.7806 28.1224C73.7806 27.6555 73.8326 27.1801 73.9373 26.6963C74.042 26.204 74.1856 25.7324 74.3687 25.2832C74.5374 24.8615 74.7479 24.4575 74.9971 24.077C75.2322 23.714 75.4805 23.4286 75.742 23.2209C76.012 23.0132 76.2781 22.9101 76.5395 22.9101C76.7141 22.9101 76.8538 22.9709 76.9585 23.0917C77.0314 23.1701 77.0873 23.284 77.1261 23.4347L76.5605 25.5486Z" fill="#B1B2B8"/>
<path id="Vector_13" d="M66.5131 29.4829H64.9047L66.4875 23.8952C66.5224 23.7744 66.548 23.6621 66.5651 23.5583C66.5845 23.4713 66.5755 23.3805 66.5395 23.299C66.5131 23.2298 66.4386 23.1952 66.3168 23.1952C66.1515 23.1952 65.9987 23.2775 65.859 23.4413C65.7287 23.5967 65.5844 23.8867 65.4277 24.3106L65.2058 24.919H64.9575L65.2973 23.9467C65.4804 23.4367 65.7163 23.0867 66.0033 22.8967C66.2904 22.7067 66.6085 22.6121 66.9577 22.6121C67.2455 22.6121 67.4635 22.6675 67.6117 22.7798C67.7637 22.8847 67.8709 23.0417 67.9127 23.2206C67.9562 23.3936 67.9647 23.5883 67.9391 23.8044C67.9124 24.014 67.8731 24.2218 67.8212 24.4267L67.3852 26.1129C67.5698 25.6598 67.7498 25.2629 67.9259 24.919C68.2223 24.3406 68.5094 23.8821 68.7887 23.5452C69.068 23.199 69.3551 22.9575 69.6515 22.819C69.9486 22.6806 70.2574 22.6113 70.5802 22.6113C71.0069 22.6113 71.304 22.7067 71.4693 22.8967C71.6439 23.0783 71.7269 23.3198 71.7176 23.6229C71.7176 23.9167 71.6617 24.2321 71.5477 24.569L70.2667 28.3813C70.1876 28.6144 70.1658 28.7921 70.2008 28.9121C70.2357 29.0252 70.3233 29.0813 70.463 29.0813C70.5933 29.0813 70.7283 29.0083 70.868 28.8613C71.0162 28.7136 71.1729 28.4152 71.3389 27.9659L71.5484 27.3829H71.7967L71.4693 28.329C71.3475 28.6921 71.19 28.969 70.9991 29.1598C70.8348 29.3377 70.6276 29.4713 70.3971 29.5482C70.1967 29.6245 69.984 29.6641 69.7694 29.6652C69.5428 29.6652 69.3465 29.6259 69.1813 29.5482C69.0238 29.479 68.902 29.379 68.8151 29.2498C68.7018 29.0859 68.6537 28.8736 68.6708 28.6144C68.6886 28.3552 68.7584 28.0444 68.8802 27.6813L70.0704 24.1159C70.1139 23.9775 70.1488 23.839 70.1752 23.7006C70.2026 23.5804 70.198 23.4553 70.162 23.3375C70.1271 23.2336 70.0355 23.1821 69.8873 23.1821C69.7042 23.1821 69.5033 23.2859 69.286 23.4929C69.068 23.6921 68.8407 23.9729 68.6056 24.3359C68.3446 24.745 68.1089 25.1694 67.8996 25.6067C67.6645 26.0913 67.4371 26.6175 67.2191 27.1883C67.0096 27.7498 66.8234 28.3336 66.6574 28.939L66.6652 28.8967L66.5131 29.4829Z" fill="#B1B2B8"/>
<path id="Vector_14" fill-rule="evenodd" clip-rule="evenodd" d="M61.6267 27.4802L61.5724 27.6817C61.49 27.9746 61.4329 28.2739 61.4017 28.5764C61.3753 28.8533 61.4188 29.0864 61.5321 29.2764C61.7066 29.5356 62.003 29.6656 62.422 29.6656C62.6456 29.664 62.8665 29.6171 63.0712 29.5278C63.2758 29.4385 63.4599 29.3087 63.6122 29.1464C63.7953 28.9479 63.9473 28.671 64.0699 28.3171L64.3958 27.371H64.1475L63.952 27.954C63.7945 28.4033 63.6416 28.7017 63.4942 28.8487C63.346 28.9948 63.2017 29.0687 63.0628 29.0687C62.9488 29.0687 62.8751 29.034 62.8402 28.9648C62.8129 28.8767 62.8039 28.7841 62.8138 28.6925C62.8316 28.5802 62.8572 28.4725 62.8929 28.3687L64.5797 22.6117C64.3173 22.6739 64.0507 22.7174 63.7821 22.7417C63.5113 22.7679 63.2196 22.7848 62.9053 22.7933L62.716 23.4871C62.708 23.311 62.6563 23.1395 62.5655 22.9879C62.4974 22.8698 62.3982 22.7724 62.2784 22.7062C62.1587 22.6399 62.0229 22.6072 61.8859 22.6117C61.5018 22.6117 61.1178 22.7287 60.7345 22.9617C60.3512 23.1956 59.9897 23.5064 59.649 23.8956C59.2968 24.293 58.9898 24.7277 58.7335 25.1917C58.4764 25.657 58.2703 26.1482 58.119 26.6571C57.9764 27.115 57.9017 27.591 57.8972 28.0702C57.8972 28.5548 58.0104 28.9433 58.237 29.2371C58.4635 29.5225 58.8127 29.6648 59.2828 29.6648C59.6141 29.6648 59.933 29.5702 60.2372 29.3802C60.5514 29.1894 60.8485 28.874 61.1271 28.434C61.3001 28.1687 61.4661 27.851 61.6267 27.4802ZM60.4994 28.7964C60.2992 28.9779 60.12 29.0687 59.9633 29.0687C59.8322 29.0687 59.7321 29.004 59.6622 28.874C59.6017 28.7356 59.5707 28.5071 59.5707 28.1871C59.5707 27.7287 59.6234 27.2579 59.7282 26.774C59.8322 26.2894 59.9718 25.8233 60.1464 25.374C60.3295 24.924 60.5297 24.5225 60.7477 24.1679C60.9657 23.814 61.1837 23.5325 61.4017 23.3248C61.6283 23.1171 61.8416 23.014 62.0426 23.014C62.2521 23.014 62.3995 23.1179 62.4872 23.3248C62.5741 23.5125 62.5958 23.764 62.5547 24.0787L62.1683 25.4956L62.2125 25.2702C62.0728 25.8233 61.9076 26.3333 61.7159 26.8002C61.5235 27.2664 61.3234 27.6687 61.1139 28.0056C60.9044 28.3425 60.6996 28.6064 60.4994 28.7964Z" fill="#B1B2B8"/>
<path id="Vector_15" d="M54.3996 29.4829H52.7912L54.36 23.8952C54.4384 23.636 54.4647 23.4544 54.4384 23.3506C54.4128 23.2467 54.3344 23.1952 54.2033 23.1952C54.038 23.1952 53.8852 23.2775 53.7455 23.4413C53.6059 23.6052 53.4623 23.8952 53.3141 24.3106L53.0915 24.919H52.8432L53.183 23.9467C53.3056 23.6006 53.4577 23.3337 53.6408 23.1429C53.8239 22.9444 54.0248 22.806 54.2428 22.7283C54.4601 22.6506 54.6828 22.6113 54.9101 22.6113C55.1886 22.6113 55.3934 22.6675 55.5238 22.7806C55.6625 22.8909 55.7557 23.0476 55.786 23.2213C55.8295 23.4029 55.838 23.6013 55.8116 23.8175C55.7946 24.0252 55.7596 24.2283 55.7069 24.4267L55.4974 25.2398L55.5184 25.1837L55.5502 25.1013C55.7946 24.4875 56.0296 23.999 56.2562 23.636C56.4921 23.2644 56.7403 23.0006 57.0018 22.8452C57.258 22.6908 57.5523 22.6099 57.8521 22.6113C58.1656 22.6113 58.4053 22.7021 58.5714 22.8837C58.7452 23.0652 58.8328 23.2898 58.8328 23.5583C58.8328 23.7737 58.7801 23.9775 58.6753 24.1675C58.5739 24.3457 58.4304 24.497 58.2571 24.6083C58.0843 24.7139 57.8844 24.7678 57.6815 24.7637C57.4642 24.7637 57.2896 24.7075 57.1585 24.5952C57.0367 24.4829 56.9754 24.3183 56.9754 24.1029C56.9754 23.9121 57.0189 23.7398 57.1065 23.5837C57.1934 23.4283 57.3067 23.299 57.4464 23.1952C57.586 23.0829 57.7381 23.0052 57.9041 22.9613C57.8857 22.9436 57.8634 22.9305 57.839 22.9229C57.8216 22.917 57.8036 22.9132 57.7854 22.9113C57.7725 22.9101 57.7596 22.9096 57.7466 22.9098C57.5558 22.9098 57.3587 22.979 57.1585 23.1175C56.9584 23.2467 56.7489 23.459 56.5309 23.7529C56.3136 24.0467 56.0909 24.4352 55.8636 24.919C55.608 25.4911 55.3812 26.0754 55.184 26.6698C55.0854 26.9567 54.9861 27.2667 54.8868 27.5983L54.3996 29.4829Z" fill="#B1B2B8"/>
<path id="Vector_16" fill-rule="evenodd" clip-rule="evenodd" d="M51.9533 20.7837C51.5173 20.4722 50.8198 20.3168 49.8608 20.3168C49.5644 20.3168 49.268 20.3214 48.9709 20.3299C48.6838 20.3383 48.3525 20.3429 47.9778 20.3429H47.3237C47.0879 20.3337 46.866 20.3299 46.6565 20.3299C46.4821 20.3222 46.3078 20.3135 46.1336 20.3037L46.0684 20.5629C46.4082 20.5629 46.6394 20.606 46.7612 20.6929C46.8923 20.7699 46.9529 20.8914 46.9443 21.056C46.9267 21.266 46.8917 21.4741 46.8396 21.6783L45.1133 28.1091C45.0357 28.4199 44.948 28.6537 44.8518 28.8091C44.7649 28.9577 44.6252 29.0688 44.46 29.1206C44.294 29.1722 44.0628 29.2068 43.7664 29.2237L43.7144 29.4829C43.8618 29.4752 44.0411 29.4706 44.2498 29.4706C44.4592 29.4614 44.6819 29.4576 44.917 29.4576C45.5751 29.4377 46.2338 29.4421 46.8916 29.4706C47.2492 29.4783 47.5767 29.4837 47.873 29.4837C48.4394 29.4837 48.9755 29.4268 49.4814 29.3145C49.9477 29.2096 50.3936 29.0304 50.8019 28.7837C51.1672 28.568 51.4762 28.2703 51.7042 27.9145C51.9308 27.5683 52.0441 27.1629 52.0441 26.696C52.0441 26.1683 51.8268 25.7145 51.3908 25.3345C50.9641 24.9537 50.2875 24.7291 49.3635 24.6599C49.94 24.5778 50.5001 24.4073 51.0238 24.1545C51.5126 23.9037 51.8959 23.5968 52.1752 23.2337C52.4563 22.889 52.6087 22.4586 52.6066 22.0152C52.6066 21.4968 52.3901 21.086 51.9533 20.7837ZM47.7792 24.8291L46.9048 28.1091C46.8528 28.3245 46.8179 28.5153 46.8008 28.6791C46.7915 28.8437 46.8349 28.9691 46.9311 29.056C47.0273 29.1422 47.2058 29.1853 47.4673 29.1853C48.0864 29.1853 48.5923 29.0683 48.9841 28.8352C49.368 28.6114 49.6738 28.2768 49.8608 27.876C50.0524 27.4606 50.1479 26.9937 50.1479 26.476C50.1479 26.1552 50.0912 25.8745 49.978 25.6329C49.8782 25.3876 49.6989 25.1821 49.4682 25.0491C49.2331 24.9022 48.9189 24.8291 48.5263 24.8291H47.7792ZM47.8381 24.6083H48.4355C48.9321 24.6083 49.3549 24.4829 49.7033 24.2322C50.061 23.9729 50.3317 23.636 50.5148 23.2214C50.7055 22.8106 50.8035 22.3636 50.8019 21.9114C50.8019 21.4791 50.715 21.1468 50.5405 20.9129C50.3752 20.6799 50.0827 20.5629 49.6637 20.5629C49.3596 20.5629 49.1416 20.6237 49.0105 20.7445C48.8801 20.8568 48.7668 21.1029 48.6706 21.4829L47.8381 24.6083Z" fill="#B1B2B8"/>
</g>
<defs>
<clipPath id="clip0_76_345">
<rect width="135" height="30" fill="white"/>
</clipPath>
</defs>
</svg>
