<svg width="60" height="60" viewBox="0 0 60 60" fill="none" xmlns="http://www.w3.org/2000/svg">
<g id="process 1">
<path id="Vector" fill-rule="evenodd" clip-rule="evenodd" d="M12.7571 32.7458L14.8659 33.1615C15.3468 33.2563 15.7482 33.5853 15.9359 34.038L17.7905 38.5148C17.9781 38.9676 17.9268 39.4842 17.6538 39.8913L16.4565 41.6767L19.1584 44.3786L20.9439 43.1813C21.3509 42.9083 21.8675 42.8569 22.3203 43.0446L26.797 44.8992C27.2497 45.0868 27.5788 45.4883 27.6735 45.9691L28.0893 48.0779H31.9104L32.3262 45.9691C32.421 45.4883 32.7499 45.0867 33.2026 44.8992L37.6793 43.0444C38.132 42.8567 38.6487 42.908 39.0558 43.1811L40.8412 44.3784L43.5432 41.6765L42.3458 39.8912C42.0729 39.484 42.0214 38.9674 42.2092 38.5146L44.0639 34.0378C44.2515 33.5849 44.653 33.256 45.1338 33.1613L47.2425 32.7455V28.9245L45.1338 28.5087C44.653 28.4139 44.2515 28.085 44.0639 27.6323L42.2092 23.1555C42.0214 22.7027 42.0729 22.186 42.3458 21.7789L43.5432 19.9935L40.8412 17.2917L39.0559 18.4888C38.6487 18.7618 38.1321 18.8131 37.6794 18.6256L33.2026 16.7709C32.7499 16.5833 32.4209 16.1818 32.3262 15.701L31.9104 13.5923H28.0893L27.6735 15.701C27.5787 16.1818 27.2497 16.5833 26.797 16.7709L22.3202 18.6256C21.8673 18.813 21.3507 18.7618 20.9437 18.4888L19.1584 17.2917L16.4565 19.9935L17.6538 21.779C17.9268 22.1861 17.9781 22.7027 17.7905 23.1555L15.9359 27.6323C15.7482 28.085 15.3469 28.414 14.8659 28.5087L12.7571 28.9245V32.7455V32.7458ZM30 20.2881C35.8158 20.2881 40.5472 25.0196 40.5472 30.8353C40.5472 36.6509 35.8158 41.3824 30 41.3824C24.1842 41.3824 19.4529 36.6509 19.4529 30.8353C19.4529 25.0196 24.1843 20.2881 30 20.2881Z" fill="#A3B7FF"/>
<path id="Vector_2" d="M16.9058 8.18107C16.5416 7.45873 16.8318 6.57783 17.5541 6.2135C18.3267 5.82385 19.1278 5.46643 19.9349 5.15131C20.6885 4.85717 21.538 5.22936 21.8321 5.98299C22.1265 6.73662 21.7541 7.586 21.0005 7.88025C20.2792 8.16197 19.5634 8.48119 18.8733 8.82936C18.6618 8.936 18.4365 8.9865 18.2148 8.9865C17.6793 8.9865 17.1633 8.69178 16.9057 8.18096L16.9058 8.18107ZM4.58883 24.6023C4.73191 24.6463 4.87652 24.6671 5.01879 24.6671C5.64551 24.6671 6.22547 24.2618 6.41871 23.6314C6.72258 22.6408 7.09312 21.6585 7.51992 20.7117C7.8525 19.9742 7.52426 19.1068 6.7868 18.7741C6.04945 18.4417 5.18203 18.7696 4.84934 19.5072C4.37191 20.5658 3.95766 21.6644 3.61781 22.7723C3.38062 23.5459 3.81551 24.3651 4.58883 24.6023ZM9.34219 14.7845C9.61957 15.0258 9.96187 15.1439 10.3028 15.1439C10.712 15.1439 11.1191 14.9733 11.4088 14.6402C11.9939 13.9672 12.6219 13.3197 13.2751 12.7156C13.8691 12.1664 13.9054 11.2396 13.3561 10.6456C12.8067 10.0517 11.88 10.0154 11.2861 10.5648C10.5551 11.2407 9.85266 11.9652 9.19805 12.718C8.66719 13.3284 8.73176 14.2536 9.34219 14.7845ZM40.3271 5.24986L42.4144 4.40483C43.1641 4.10119 43.5259 3.24725 43.2224 2.49736C42.9189 1.74748 42.0648 1.38561 41.315 1.68924L35.4613 4.05924C35.0541 4.22412 34.7425 4.56303 34.6121 4.98256C34.4818 5.40209 34.5466 5.85795 34.7889 6.22451L38.27 11.4935C38.7161 12.1684 39.6247 12.3541 40.2997 11.9082C40.9747 11.4622 41.1604 10.5535 40.7145 9.87854L39.5333 8.09096C48.6485 11.9038 54.6534 20.8261 54.6534 30.8352C54.6534 44.429 43.594 55.4885 30.0001 55.4885C16.4063 55.4885 5.34668 44.429 5.34668 30.8352C5.34668 30.0262 4.69078 29.3703 3.88184 29.3703C3.07289 29.3703 2.41699 30.0262 2.41699 30.8352C2.41699 38.2029 5.28609 45.1296 10.4958 50.3394C15.7056 55.5491 22.6322 58.4182 30 58.4182C37.3678 58.4182 44.2944 55.5491 49.5042 50.3394C54.7139 45.1296 57.583 38.203 57.583 30.8352C57.583 19.5138 50.7154 9.43498 40.3271 5.24986ZM14.0494 18.2576L17.4224 14.8847C18.2146 14.0922 19.4654 13.9703 20.396 14.5942L21.9239 15.6187L24.9511 14.3646L25.3069 12.5601C25.5237 11.4607 26.4943 10.6628 27.615 10.6628H32.3849C33.5055 10.6628 34.4763 11.4608 34.693 12.5601L35.0488 14.3646L38.076 15.6187L39.6037 14.5943C40.5342 13.9699 41.7851 14.0921 42.5776 14.8848L45.9504 18.2574C46.7427 19.05 46.8649 20.3005 46.2409 21.2311L45.2162 22.7591L46.4702 25.7863L48.2747 26.1421C49.3743 26.3588 50.1722 27.3295 50.1722 28.4502V33.2202C50.1722 34.341 49.374 35.3117 48.2746 35.5284L46.4702 35.8842L45.2162 38.9113L46.2408 40.439C46.8649 41.3696 46.7428 42.6203 45.9504 43.4128L42.5774 46.7858C41.785 47.5783 40.5341 47.7003 39.6034 47.076L38.0757 46.0516L35.0487 47.3058L34.6929 49.1102C34.4761 50.2097 33.5054 51.0077 32.3848 51.0077H27.6149C26.4942 51.0077 25.5234 50.2097 25.3068 49.1101L24.951 47.3056L21.9239 46.0516L20.396 47.0762C19.4651 47.7003 18.2143 47.5783 17.4221 46.7858L14.0494 43.413C13.257 42.6204 13.1348 41.3697 13.7591 40.4392L14.7836 38.9114L13.5294 35.8842L11.725 35.5284C10.6255 35.3117 9.82746 34.3411 9.82746 33.2202V28.4502C9.82746 27.3295 10.6256 26.3587 11.7252 26.1421L13.5294 25.7863L14.7836 22.7591L13.759 21.2312C13.1348 20.3008 13.257 19.0501 14.0494 18.2576ZM14.8661 28.5088L12.7573 28.9246V32.7456L14.8661 33.1613C15.3469 33.2562 15.7484 33.5851 15.936 34.0378L17.7906 38.5146C17.9782 38.9674 17.9269 39.484 17.6539 39.8911L16.4566 41.6765L19.1585 44.3784L20.944 43.1811C21.351 42.9081 21.8677 42.8567 22.3205 43.0444L26.7971 44.899C27.2498 45.0866 27.5789 45.4881 27.6736 45.9689L28.0894 48.0777H31.9105L32.3263 45.9689C32.4211 45.4881 32.75 45.0865 33.2027 44.899L37.6794 43.0442C38.1321 42.8565 38.6488 42.9078 39.0559 43.1809L40.8414 44.3782L43.5434 41.6763L42.3459 39.891C42.073 39.4838 42.0216 38.9672 42.2093 38.5144L44.064 34.0376C44.2516 33.5847 44.6531 33.2558 45.1339 33.1611L47.2426 32.7453V28.9243L45.1339 28.5085C44.6531 28.4137 44.2516 28.0848 44.064 27.6321L42.2093 23.1553C42.0216 22.7025 42.073 22.1858 42.3459 21.7787L43.5434 19.9933L40.8414 17.2915L39.056 18.4887C38.6488 18.7616 38.1322 18.8129 37.6795 18.6254L33.2027 16.7707C32.75 16.5831 32.421 16.1816 32.3263 15.7008L31.9105 13.5921H28.0894L27.6736 15.7008C27.5788 16.1816 27.2498 16.5831 26.7971 16.7707L22.3204 18.6254C21.8674 18.8128 21.3509 18.7616 20.9439 18.4887L19.1585 17.2915L16.4566 19.9933L17.6539 21.7788C17.9269 22.1859 17.9782 22.7025 17.7906 23.1553L15.936 27.6321C15.7484 28.0848 15.347 28.4138 14.8661 28.5085V28.5088ZM19.453 30.8352C19.453 25.0195 24.1845 20.2881 30.0001 20.2881C35.8158 20.2881 40.5473 25.0195 40.5473 30.8352C40.5473 36.6508 35.8159 41.3823 30.0001 41.3823C24.1843 41.3823 19.453 36.6508 19.453 30.8352ZM22.3827 30.8352C22.3827 35.0354 25.7999 38.4526 30.0001 38.4526C34.2004 38.4526 37.6177 35.0354 37.6177 30.8352C37.6177 26.6349 34.2005 23.2178 30.0001 23.2178C25.7998 23.2178 22.3827 26.6349 22.3827 30.8352Z" fill="#466FFD"/>
</g>
</svg>
