<svg width="52" height="52" viewBox="0 0 52 52" fill="none" xmlns="http://www.w3.org/2000/svg">
<g id="text 1" clip-path="url(#clip0_44_1167)">
<g id="Group">
<path id="Vector" d="M37.6583 23.0547L40.2588 25.6552C40.6962 26.094 41.3523 26.228 41.9191 25.9855C42.4889 25.7505 42.8594 25.194 42.8594 24.5781V18.4844C42.8594 17.6423 42.178 16.9609 41.3359 16.9609H20.0078C19.1658 16.9609 18.4844 17.6423 18.4844 18.4844V24.5781C18.4844 25.194 18.8548 25.7505 19.4246 25.9855C19.9944 26.225 20.6491 26.0911 21.085 25.6552L23.6855 23.0547H27.625V39.1817L25.0245 41.7822C24.5886 42.2181 24.4577 42.8727 24.6942 43.4425C24.9292 44.0123 25.4857 44.3828 26.1016 44.3828H35.2422C35.8581 44.3828 36.4145 44.0124 36.6495 43.4425C36.8861 42.8728 36.7552 42.2181 36.3193 41.7822L33.7188 39.1817V23.0547H37.6583Z" fill="#47C4FF"/>
<path id="Vector_2" d="M48.9531 35.2422C49.7952 35.2422 50.4766 34.5608 50.4766 33.7188V27.625C50.4766 26.7829 49.7952 26.1016 48.9531 26.1016C48.1111 26.1016 47.4297 26.7829 47.4297 27.625V33.7188C47.4297 34.5608 48.1111 35.2422 48.9531 35.2422Z" fill="#47C4FF"/>
<path id="Vector_3" d="M27.625 47.4297C26.7829 47.4297 26.1016 48.1111 26.1016 48.9531C26.1016 49.7952 26.7829 50.4766 27.625 50.4766H33.7188C34.5608 50.4766 35.2422 49.7952 35.2422 48.9531C35.2422 48.1111 34.5608 47.4297 33.7188 47.4297H27.625Z" fill="#47C4FF"/>
<path id="Vector_4" d="M50.4766 45.9062V39.8125C50.4766 38.9704 49.7952 38.2891 48.9531 38.2891C48.1111 38.2891 47.4297 38.9704 47.4297 39.8125V45.9062C46.5876 45.9062 45.9062 46.5876 45.9062 47.4297H39.8125C38.9704 47.4297 38.2891 48.1111 38.2891 48.9531C38.2891 49.7952 38.9704 50.4766 39.8125 50.4766H45.9062C45.9062 51.3186 46.5876 52 47.4297 52H50.4766C51.3186 52 52 51.3186 52 50.4766V47.4297C52 46.5876 51.3186 45.9062 50.4766 45.9062Z" fill="#47C4FF"/>
<path id="Vector_5" d="M50.4766 9.34375H47.4297C46.5876 9.34375 45.9062 10.0251 45.9062 10.8672H15.4375C15.4375 10.0251 14.7561 9.34375 13.9141 9.34375H10.8672C10.0251 9.34375 9.34375 10.0251 9.34375 10.8672V13.9141C9.34375 14.7561 10.0251 15.4375 10.8672 15.4375V45.9062C10.0251 45.9062 9.34375 46.5876 9.34375 47.4297V50.4766C9.34375 51.3186 10.0251 52 10.8672 52H13.9141C14.7561 52 15.4375 51.3186 15.4375 50.4766H21.5312C22.3733 50.4766 23.0547 49.7952 23.0547 48.9531C23.0547 48.1111 22.3733 47.4297 21.5312 47.4297H15.4375C15.4375 46.5876 14.7561 45.9062 13.9141 45.9062V15.4375C14.7561 15.4375 15.4375 14.7561 15.4375 13.9141H45.9062C45.9062 14.7561 46.5876 15.4375 47.4297 15.4375V21.5312C47.4297 22.3733 48.1111 23.0547 48.9531 23.0547C49.7952 23.0547 50.4766 22.3733 50.4766 21.5312V15.4375C51.3186 15.4375 52 14.7561 52 13.9141V10.8672C52 10.0251 51.3186 9.34375 50.4766 9.34375Z" fill="#47C4FF"/>
<path id="Vector_6" d="M1.52344 39.8125H7.82031V17.2957C6.89213 16.4585 6.29688 15.2596 6.29688 13.9141V10.8672C6.29688 8.34702 8.34702 6.29688 10.8672 6.29688H13.9141C15.2596 6.29688 16.4584 6.89213 17.2957 7.82031H39.8125V1.52344C39.8125 0.682094 39.1304 0 38.2891 0H1.52344C0.682094 0 0 0.682094 0 1.52344V38.2891C0 39.1304 0.682094 39.8125 1.52344 39.8125Z" fill="#47C4FF"/>
</g>
</g>
<defs>
<clipPath id="clip0_44_1167">
<rect width="52" height="52" fill="white"/>
</clipPath>
</defs>
</svg>
