<svg width="16" height="16" viewBox="0 0 16 16" fill="none" xmlns="http://www.w3.org/2000/svg">
<g id="user-line">
<path id="Vector" d="M2.66666 14.6665C2.66666 11.721 5.05447 9.33317 7.99999 9.33317C10.9455 9.33317 13.3333 11.721 13.3333 14.6665H12C12 12.4574 10.2091 10.6665 7.99999 10.6665C5.79085 10.6665 3.99999 12.4574 3.99999 14.6665H2.66666ZM7.99999 8.6665C5.78999 8.6665 3.99999 6.8765 3.99999 4.6665C3.99999 2.4565 5.78999 0.666504 7.99999 0.666504C10.21 0.666504 12 2.4565 12 4.6665C12 6.8765 10.21 8.6665 7.99999 8.6665ZM7.99999 7.33317C9.47332 7.33317 10.6667 6.13984 10.6667 4.6665C10.6667 3.19317 9.47332 1.99984 7.99999 1.99984C6.52666 1.99984 5.33332 3.19317 5.33332 4.6665C5.33332 6.13984 6.52666 7.33317 7.99999 7.33317Z" fill="#04081B"/>
</g>
</svg>
