<svg width="67" height="34" viewBox="0 0 67 34" fill="none" xmlns="http://www.w3.org/2000/svg">
<g id="logo-4">
<path id="Vector" d="M1.73207 19.6777H3.63013V28.9382H1.73207V19.6777Z" fill="#B1B2B8"/>
<path id="Vector_2" d="M4.73099 25.7655C4.72973 25.1004 4.92681 24.4498 5.29729 23.8961C5.66777 23.3424 6.19498 22.9106 6.81223 22.6552C7.42943 22.3998 8.10895 22.3323 8.76474 22.4613C9.42054 22.5903 10.0231 22.91 10.4962 23.3799C10.9694 23.8498 11.2918 24.4488 11.4226 25.101C11.5535 25.7533 11.487 26.4296 11.2315 27.0442C10.9759 27.6588 10.5429 28.1842 9.98716 28.5539C9.43146 28.9236 8.77801 29.1209 8.10955 29.1209C7.66494 29.126 7.22388 29.0427 6.81209 28.8759C6.40033 28.7092 6.02614 28.4623 5.71148 28.1498C5.39682 27.8373 5.14802 27.4654 4.97965 27.056C4.81129 26.6466 4.72675 26.2078 4.73099 25.7655ZM9.57732 25.7655C9.56988 25.4784 9.47749 25.1998 9.31173 24.9646C9.14597 24.7294 8.91422 24.5482 8.64541 24.4434C8.37661 24.3386 8.08275 24.315 7.80061 24.3756C7.51841 24.4361 7.26046 24.5781 7.05892 24.7838C6.85745 24.9894 6.72138 25.2497 6.66774 25.532C6.6141 25.8142 6.64531 26.1059 6.75742 26.3706C6.86958 26.6352 7.05765 26.8612 7.29811 27.02C7.53864 27.1789 7.82085 27.2637 8.10955 27.2638C8.307 27.2693 8.50351 27.234 8.68662 27.1602C8.86973 27.0863 9.03549 26.9755 9.17344 26.8347C9.31133 26.6939 9.41846 26.5262 9.48794 26.3422C9.55749 26.1582 9.5879 25.9618 9.57732 25.7655Z" fill="#B1B2B8"/>
<path id="Vector_3" d="M19.1182 22.5922V28.6231C19.1182 30.7573 17.4416 31.6575 15.746 31.6575C15.1498 31.7017 14.5528 31.5817 14.0205 31.3107C13.4882 31.0398 13.0411 30.6283 12.7281 30.1215L14.3604 29.1835C14.49 29.4432 14.6949 29.6583 14.9487 29.8009C15.2025 29.9434 15.4935 30.0069 15.784 29.9829C15.9751 30.0147 16.171 30.0023 16.3566 29.9467C16.5422 29.8911 16.7124 29.7939 16.8543 29.6625C16.996 29.5311 17.1056 29.3691 17.1746 29.1889C17.2435 29.0087 17.2699 28.8151 17.2518 28.6231V28.0377C17.0287 28.3109 16.7439 28.5279 16.4208 28.6711C16.0976 28.8144 15.7451 28.8799 15.3917 28.8624C14.5326 28.8624 13.7087 28.5228 13.1011 27.9183C12.4936 27.3139 12.1523 26.494 12.1523 25.6391C12.1523 24.7843 12.4936 23.9645 13.1011 23.36C13.7087 22.7555 14.5326 22.4159 15.3917 22.4159C15.7449 22.3999 16.0969 22.4661 16.4198 22.6092C16.7428 22.7524 17.0276 22.9686 17.2518 23.2406V22.6111L19.1182 22.5922ZM17.2518 25.6391C17.2644 25.333 17.1847 25.0301 17.023 24.7693C16.8612 24.5085 16.6247 24.3019 16.344 24.1759C16.0633 24.0499 15.751 24.0104 15.4475 24.0624C15.144 24.1143 14.8631 24.2555 14.6408 24.4675C14.4185 24.6797 14.2651 24.9531 14.2003 25.2526C14.1353 25.5521 14.162 25.8642 14.2768 26.1485C14.3915 26.4329 14.5891 26.6766 14.8442 26.8483C15.0993 27.0201 15.4001 27.112 15.708 27.1123C15.9091 27.1264 16.1108 27.0985 16.3003 27.0303C16.4898 26.9621 16.6629 26.8553 16.8084 26.7165C16.9537 26.5777 17.0684 26.4101 17.1448 26.2245C17.2211 26.039 17.2576 25.8396 17.2518 25.6391Z" fill="#B1B2B8"/>
<path id="Vector_4" d="M20.2128 25.7655C20.2115 25.1004 20.4086 24.4498 20.779 23.8961C21.1495 23.3424 21.6768 22.9106 22.294 22.6552C22.9112 22.3998 23.5907 22.3323 24.2465 22.4613C24.9023 22.5903 25.5049 22.91 25.978 23.3799C26.4511 23.8498 26.7735 24.4488 26.9044 25.101C27.0353 25.7533 26.9688 26.4296 26.7132 27.0442C26.4577 27.6588 26.0247 28.1842 25.469 28.5539C24.9132 28.9236 24.2598 29.1209 23.5913 29.1209C23.1468 29.126 22.7056 29.0427 22.2938 28.8759C21.8821 28.7092 21.5079 28.4623 21.1932 28.1498C20.8786 27.8373 20.6298 27.4654 20.4614 27.056C20.293 26.6466 20.2085 26.2078 20.2128 25.7655ZM25.0591 25.7655C25.0516 25.4784 24.9592 25.1998 24.7935 24.9646C24.6277 24.7294 24.396 24.5482 24.1272 24.4434C23.8584 24.3386 23.5646 24.315 23.2824 24.3756C23.0002 24.4361 22.7422 24.5781 22.5407 24.7838C22.3392 24.9894 22.2031 25.2497 22.1495 25.532C22.0959 25.8142 22.1271 26.1059 22.2392 26.3706C22.3513 26.6352 22.5394 26.8612 22.7799 27.02C23.0204 27.1789 23.3026 27.2637 23.5913 27.2638C23.7877 27.2675 23.9828 27.231 24.1645 27.1563C24.3461 27.0816 24.5103 26.9706 24.6468 26.83C24.7834 26.6894 24.8893 26.5223 24.9581 26.3392C25.0268 26.156 25.0569 25.9607 25.0465 25.7655H25.0591Z" fill="#B1B2B8"/>
<path id="Vector_5" d="M27.8493 20.8928C27.8493 20.6662 27.9168 20.4447 28.0433 20.2563C28.1699 20.0679 28.3497 19.921 28.5601 19.8343C28.7705 19.7476 29.002 19.7249 29.2254 19.7691C29.4488 19.8133 29.6539 19.9224 29.815 20.0826C29.9761 20.2429 30.0857 20.447 30.1301 20.6693C30.1746 20.8916 30.1517 21.122 30.0646 21.3313C29.9775 21.5406 29.8299 21.7196 29.6405 21.8455C29.4511 21.9714 29.2285 22.0386 29.0007 22.0386C28.6959 22.037 28.404 21.9157 28.1884 21.7012C27.9728 21.4867 27.851 21.1962 27.8493 20.8928ZM28.0454 22.5926H29.9434V28.9383H28.0454V22.5926Z" fill="#B1B2B8"/>
<path id="Vector_6" d="M38.2189 25.7655C38.2418 26.1849 38.1813 26.6048 38.0406 27.0009C37.8998 27.3969 37.6818 27.7614 37.3989 28.0733C37.1161 28.3851 36.774 28.6383 36.3925 28.8181C36.0109 28.9979 35.5974 29.1008 35.1757 29.1209C34.8216 29.1378 34.4681 29.0773 34.1402 28.9435C33.8123 28.8097 33.5178 28.6059 33.2776 28.3466V31.4943H31.3796V22.5926H33.2776V23.1907C33.5178 22.9313 33.8123 22.7276 34.1402 22.5938C34.4681 22.46 34.8216 22.3995 35.1757 22.4163C35.5968 22.4365 36.0098 22.5392 36.3909 22.7186C36.7721 22.8981 37.1138 23.1506 37.3966 23.4618C37.6794 23.773 37.8975 24.1367 38.0386 24.532C38.1798 24.9273 38.241 25.3465 38.2189 25.7655ZM36.3208 25.7655C36.3133 25.47 36.2189 25.1832 36.0491 24.9406C35.8794 24.6981 35.642 24.5103 35.3661 24.4007C35.0903 24.291 34.7881 24.2643 34.4972 24.3238C34.2062 24.3833 33.9392 24.5264 33.7291 24.7354C33.5191 24.9444 33.3753 25.2101 33.3155 25.4996C33.2557 25.7891 33.2826 26.0897 33.3927 26.3642C33.5029 26.6387 33.6916 26.875 33.9354 27.0438C34.1792 27.2127 34.4675 27.3067 34.7644 27.3141C34.9716 27.3273 35.1793 27.2961 35.3734 27.2227C35.5675 27.1493 35.7436 27.0355 35.8899 26.8888C36.0361 26.7421 36.1491 26.5659 36.2213 26.3722C36.2934 26.1785 36.323 25.9716 36.3082 25.7655H36.3208Z" fill="#B1B2B8"/>
<path id="Vector_7" d="M44.1282 27.0367C44.1282 28.4972 42.8628 29.1204 41.4709 29.1204C40.9149 29.1694 40.3568 29.0517 39.8686 28.7824C39.3805 28.5132 38.9844 28.1047 38.7314 27.6096L40.3891 26.6716C40.4563 26.9006 40.6004 27.0998 40.7972 27.236C40.994 27.3723 41.2317 27.4375 41.4709 27.4207C41.9328 27.4207 42.1606 27.2759 42.1606 27.0241C42.1606 26.3253 38.9972 26.6968 38.9972 24.506C38.9972 23.121 40.1739 22.4222 41.5279 22.4222C42.0275 22.4071 42.5221 22.5252 42.9604 22.7643C43.3987 23.0034 43.7647 23.3548 44.0207 23.782L42.3567 24.6508C42.2832 24.4845 42.1628 24.343 42.01 24.2436C41.8572 24.1441 41.6788 24.0909 41.4963 24.0904C41.1673 24.0904 40.9648 24.2164 40.9648 24.4493C40.9901 25.1732 44.1282 24.6885 44.1282 27.0367Z" fill="#B1B2B8"/>
<path id="Vector_8" d="M51.113 22.5923V28.938H49.2149V28.3463C48.9942 28.6092 48.714 28.8164 48.3973 28.951C48.0806 29.0856 47.7364 29.1437 47.3928 29.1206C46.1274 29.1206 45.0076 28.2078 45.0076 26.4892V22.5923H46.9056V26.2122C46.8889 26.3664 46.907 26.5224 46.9585 26.6689C47.0099 26.8154 47.0935 26.9486 47.2032 27.0589C47.3128 27.1692 47.4458 27.2538 47.5924 27.3066C47.739 27.3595 47.8956 27.3791 48.0508 27.3642C48.7468 27.3642 49.2339 26.9613 49.2339 26.0611V22.5923H51.113Z" fill="#B1B2B8"/>
<path id="Vector_9" d="M62.0837 25.0478V28.9383H60.1856V25.2115C60.1856 24.582 59.8756 24.1664 59.2683 24.1664C58.6609 24.1664 58.2686 24.6134 58.2686 25.3626V28.9383H56.3706V25.2115C56.3706 24.582 56.0669 24.1664 55.4531 24.1664C54.8395 24.1664 54.4599 24.6134 54.4599 25.3626V28.9383H52.5618V22.5926H54.4599V23.1781C54.6583 22.9195 54.9184 22.7144 55.2168 22.5814C55.5151 22.4483 55.8421 22.3916 56.1681 22.4164C56.4955 22.4005 56.8214 22.4694 57.1141 22.616C57.4068 22.7628 57.6563 22.9824 57.8384 23.2536C58.0501 22.9701 58.3307 22.7446 58.6537 22.5982C58.9768 22.4518 59.3319 22.3892 59.6858 22.4164C61.1284 22.4164 62.0837 23.4614 62.0837 25.0478Z" fill="#B1B2B8"/>
<path id="Vector_10" d="M63.7035 22.5547C64.4862 22.5547 65.1207 21.9233 65.1207 21.1445C65.1207 20.3657 64.4862 19.7344 63.7035 19.7344C62.9208 19.7344 62.2862 20.3657 62.2862 21.1445C62.2862 21.9233 62.9208 22.5547 63.7035 22.5547Z" fill="#B1B2B8"/>
<path id="Vector_11" d="M23.2117 14.8742C26.8771 14.8742 29.8485 11.9175 29.8485 8.27032C29.8485 4.62314 26.8771 1.6665 23.2117 1.6665C19.5462 1.6665 16.5748 4.62314 16.5748 8.27032C16.5748 11.9175 19.5462 14.8742 23.2117 14.8742Z" fill="#B1B2B8"/>
<path id="Vector_12" d="M38.0481 14.8742C41.7135 14.8742 44.6849 11.9175 44.6849 8.27032C44.6849 4.62314 41.7135 1.6665 38.0481 1.6665C34.3827 1.6665 31.4112 4.62314 31.4112 8.27032C31.4112 11.9175 34.3827 14.8742 38.0481 14.8742Z" fill="#B1B2B8"/>
<path id="Vector_13" d="M15.0121 1.6665H1.74472V14.8679H15.0121V1.6665Z" fill="#B1B2B8"/>
</g>
</svg>
